<svg xmlns="http://www.w3.org/2000/svg" viewBox="0 0 165.3 188.19"><defs><style>.cls-1{fill:#004796;}</style></defs><g id="Capa_2" data-name="Capa 2"><g id="Capa_1-2" data-name="Capa 1"><path class="cls-1" d="M165.3,42c-1.18,4.59-4.35,7.08-8.61,8.79-7.62,3.06-15.12,6.45-22.7,9.63a1.94,1.94,0,0,0-1.38,2.15c.06,5.22-.1,10.44.06,15.66.23,7.91-3.33,13.85-9.32,18.55-7.19,5.64-15.54,8.68-24.42,10.29-16,2.9-31.71,2-46.86-4.33A37.25,37.25,0,0,1,37.33,92.32a19.72,19.72,0,0,1-4.71-12.89c0-5.65,0-11.31,0-17a1.84,1.84,0,0,0-1.34-2c-3.63-1.48-7.23-3-10.82-4.61-.92-.4-1.42-.61-1.42.8.05,11,0,22.06,0,33.09a1.6,1.6,0,0,0,1,1.63c4.38,2.39,5.58,7,2.95,11.24a1.18,1.18,0,0,0,.12,1.65,8.16,8.16,0,0,1,1.75,4.6c.6,6.59,1.24,13.18,1.83,19.76.38,4.16-1.7,6.41-5.88,6.42-3,0-5.92,0-8.88,0-3.58,0-5.71-2.53-5.36-6.12.62-6.53,1.19-13.07,1.78-19.61a8.52,8.52,0,0,1,1.84-5.06,1.19,1.19,0,0,0,.06-1.68c-2.59-4.26-1.36-8.84,3-11.22a1.42,1.42,0,0,0,.88-1.48q0-17.84,0-35.68a1.42,1.42,0,0,0-1.08-1.51C11,51.82,9,50.91,6.88,50,2.55,48.19,0,45,0,40.24s2.47-8,6.8-9.83Q39.91,16.22,73,2a23.69,23.69,0,0,1,19.42.08q32.81,14.07,65.64,28.1a11.77,11.77,0,0,1,7.22,8.24ZM24.74,51.87l-.09.32c.53.25,1.05.51,1.58.74,16,6.86,32,13.67,48,20.58a20.16,20.16,0,0,0,16.85,0c12.47-5.41,25-10.72,37.47-16.07l27.7-11.87c1.91-.82,3.47-2,3.91-4.14.62-3-.67-5.16-4-6.6q-32.73-14-65.45-28.08a19.8,19.8,0,0,0-16.4.11q-32.41,14-64.87,27.82a14.05,14.05,0,0,0-2,1,5.31,5.31,0,0,0,.06,9c2.49,1.49,5.29,2.35,7.93,3.55a2,2,0,0,0,1.25,0l28.92-5,23-4.05c.51-.09,1.09,0,1.35-.66,1.31-3.24,4.1-4.62,7.21-5.35,5.51-1.3,10.94-1.18,15.77,2.24,3.68,2.6,3.6,6.9,0,9.6a16.17,16.17,0,0,1-10,2.87c-3.87,0-7.67-.54-10.78-3.11a3,3,0,0,0-2.75-.7q-15.4,2.72-30.81,5.37ZM127.24,83c-.51-.07-.67.26-.88.47a37.46,37.46,0,0,1-10.3,7.39c-1.81.92-3.24.67-3.92-.69s-.11-2.7,1.62-3.66a44.12,44.12,0,0,0,5.11-3.08c3.84-2.81,7.12-6.07,8.37-10.89.64-2.48.35-5,.39-7.54,0-1.78,0-1.79-1.71-1.06-11,4.7-22,9.33-32.87,14.11a24.83,24.83,0,0,1-20.77,0c-10.84-4.72-21.71-9.33-32.57-14-.45-.19-.9-.36-1.34-.56s-.74-.11-.73.42c0,2.84-.34,5.72.36,8.52,1.41,5.62,5.41,9.18,10.06,12.06,9.35,5.79,19.76,8,30.57,8.5a87.91,87.91,0,0,0,13.86-.44c1.77-.2,2.92.64,3.08,2.09S94.8,97.26,93,97.5l-.32,0a89.89,89.89,0,0,1-22.53-.34c-8.69-1.28-17-3.72-24.54-8.36a39.6,39.6,0,0,1-7.64-6.22,13.34,13.34,0,0,0,2.86,6.13c4.45,5.62,10.53,8.82,17.13,11a77.37,77.37,0,0,0,49.43,0c5.92-1.94,11.4-4.81,15.77-9.42A14.86,14.86,0,0,0,127.24,83ZM16.65,130.12c1.34,0,2.68,0,4,0,.94,0,1.19-.27,1.09-1.22-.44-4.49-.81-9-1.21-13.47-.19-2.08-.35-4.17-.6-6.25A3.37,3.37,0,0,0,16.83,106a3.25,3.25,0,0,0-3.38,2.8c-.24,1.21-.3,2.45-.42,3.67-.49,5.35-.93,10.7-1.47,16-.14,1.33.28,1.71,1.55,1.61S15.47,130.13,16.65,130.12Zm66-92.68a12.7,12.7,0,0,0-7.08,1.72c-1.29.79-1.27,1.24,0,2.07,3.45,2.33,10.67,2.35,14.16,0,1.26-.84,1.29-1.29,0-2.07A12.71,12.71,0,0,0,82.65,37.44Zm-63.27,61a2.82,2.82,0,0,0-2.77-3,2.93,2.93,0,0,0-2.74,3,3,3,0,0,0,2.81,3A2.94,2.94,0,0,0,19.38,98.48Z"/><path class="cls-1" d="M108.8,92.4a2.35,2.35,0,0,1-1.9,2.16q-2.46.76-5,1.35a2.47,2.47,0,1,1-1.28-4.76c1.64-.5,3.29-1,5-1.32A2.47,2.47,0,0,1,108.8,92.4Z"/><path class="cls-1" d="M57.85,180.83h2.46v5.58a8,8,0,0,1-2.52,1.32,9.58,9.58,0,0,1-3,.46,8,8,0,0,1-3.86-.93,6.89,6.89,0,0,1-2.7-2.57,7.47,7.47,0,0,1,0-7.4A6.91,6.91,0,0,1,51,174.72a8.07,8.07,0,0,1,3.89-.93,8.44,8.44,0,0,1,3.2.58,6.25,6.25,0,0,1,2.42,1.7l-1.64,1.6a5.25,5.25,0,0,0-3.86-1.6,5.49,5.49,0,0,0-2.63.62,4.44,4.44,0,0,0-1.8,1.74,5,5,0,0,0-.65,2.56,5,5,0,0,0,.65,2.52,4.62,4.62,0,0,0,1.8,1.76,5.26,5.26,0,0,0,2.61.64,5.65,5.65,0,0,0,2.88-.72Z"/><path class="cls-1" d="M74.89,188,72,183.89l-.54,0H68.33V188h-2.6V174h5.76a7.76,7.76,0,0,1,3.17.6,4.59,4.59,0,0,1,2.07,1.72,5.23,5.23,0,0,1,0,5.38,4.55,4.55,0,0,1-2.21,1.7l3.22,4.6ZM74,176.91a4,4,0,0,0-2.58-.72h-3v5.58h3A4,4,0,0,0,74,181a2.54,2.54,0,0,0,.88-2.07A2.5,2.5,0,0,0,74,176.91Z"/><path class="cls-1" d="M91.43,184.75h-7L83.05,188H80.37l6.3-14h2.56l6.32,14H92.83Zm-.86-2-2.64-6.12-2.62,6.12Z"/><path class="cls-1" d="M99.33,174h6.12a8.79,8.79,0,0,1,4,.87,6.44,6.44,0,0,1,2.7,2.46,7.5,7.5,0,0,1,0,7.34,6.44,6.44,0,0,1-2.7,2.46,8.79,8.79,0,0,1-4,.87H99.33Zm6,11.8a6,6,0,0,0,2.71-.59,4.18,4.18,0,0,0,1.8-1.68,5.4,5.4,0,0,0,0-5.06,4.18,4.18,0,0,0-1.8-1.68,6,6,0,0,0-2.71-.59h-3.4v9.6Z"/><path class="cls-1" d="M120.53,187.26a6.84,6.84,0,0,1-2.7-2.58,7.44,7.44,0,0,1,0-7.38,6.84,6.84,0,0,1,2.7-2.58,8.48,8.48,0,0,1,7.72,0,6.89,6.89,0,0,1,2.7,2.57,7.47,7.47,0,0,1,0,7.4,6.89,6.89,0,0,1-2.7,2.57,8.48,8.48,0,0,1-7.72,0Zm6.38-2a4.58,4.58,0,0,0,1.76-1.76,5.32,5.32,0,0,0,0-5.06,4.58,4.58,0,0,0-1.76-1.76,5.35,5.35,0,0,0-5,0,4.58,4.58,0,0,0-1.76,1.76,5.32,5.32,0,0,0,0,5.06,4.58,4.58,0,0,0,1.76,1.76,5.36,5.36,0,0,0,5,0Z"/></g></g></svg>