<svg xmlns="http://www.w3.org/2000/svg" viewBox="0 0 158.42 199.78"><defs><style>.cls-1{fill:#004796;}</style></defs><g id="Capa_2" data-name="Capa 2"><g id="Capa_1-2" data-name="Capa 1"><path class="cls-1" d="M71.2,158.22A6.41,6.41,0,0,1,67.09,154c-.25-.78-.69-.87-1.41-.53a8.49,8.49,0,0,1-2.17.76A5.19,5.19,0,0,1,57.73,147c1.37-3.55,2.92-7,4.37-10.55a3.07,3.07,0,0,0,.49-1.55c-1.6,0-3.18-.05-4.76,0a389.47,389.47,0,0,0-48.57,4.69,4.5,4.5,0,0,1-4.81-2.29,20.77,20.77,0,0,1-3-8.39,112.68,112.68,0,0,1,.18-37.37,20.66,20.66,0,0,1,2.54-7.09,4.94,4.94,0,0,1,5.54-2.62c29,4.6,58.21,5.79,87.52,4.85a421,421,0,0,0,51.36-4.8c3-.46,4.3.16,5.83,2.84a28.46,28.46,0,0,1,3.05,10.62c.39,2.9.63,5.82.93,8.73v13.3a13,13,0,0,0-.24,1.5,70,70,0,0,1-1,9.36,24,24,0,0,1-3.08,9c-1.12,1.71-2.55,2.77-4.77,2.37s-4.48-.69-6.72-1c-13.22-1.89-26.51-3-39.85-3.61-1.31-.06-1.74.07-1.09,1.5,1.55,3.48,3,7,4.41,10.54a5.25,5.25,0,0,1-6,7.13,8.32,8.32,0,0,1-2-.74c-.72-.36-1.15-.24-1.39.54a6.4,6.4,0,0,1-4.14,4.24H90.07a7.6,7.6,0,0,1-4.25-4.76c-1.17-3.12-2.54-6.16-3.94-9.49-1.39,3.34-2.76,6.39-3.93,9.51a7.52,7.52,0,0,1-4.27,4.74Zm81.64-47.56c0-2.94.16-5.88,0-8.81a54.59,54.59,0,0,0-2.28-13.52c-.31-.92-.68-1.22-1.76-1.07-6.68.92-13.37,1.83-20.08,2.55Q111.55,91.64,94.3,92c-.82,0-1.17.07-.94,1.09A67.81,67.81,0,0,1,95,107.52a2.23,2.23,0,0,0,.66,1.48c4.84,5.76,6,12.18,3.3,19.2-.45,1.2-.09,1.41,1,1.46,4.74.21,9.48.43,14.21.73,11.06.7,22.06,1.91,33,3.54,3,.45,3.06.51,3.85-2.57A74.3,74.3,0,0,0,152.84,110.66ZM13.38,87.88c2.24,7.78,2.51,15.49,2.49,23.23,0,7.07-.22,14.13-2.15,21-.41,1.45.06,1.48,1.22,1.32a431.18,431.18,0,0,1,48.81-3.94c1.34,0,1.41-.38,1-1.51a17.9,17.9,0,0,1,.82-15.24,3.7,3.7,0,0,0,.49-1.6A69.72,69.72,0,0,0,64.16,93,1.17,1.17,0,0,0,62.81,92c-1.76,0-3.51-.15-5.26-.22C46,91.29,34.41,90.41,22.89,89Zm68.46,46.56a13.17,13.17,0,1,0-13.13-13.18A13.13,13.13,0,0,0,81.84,134.44Zm7.68-30.12a52.16,52.16,0,0,0-1.63-11.4c-.15-.64-.53-.78-1.12-.77-5.45.12-10.91.17-16.36,0-.62,0-1,.08-.81.86a80.27,80.27,0,0,1,1.64,13C80.16,102.09,81.29,102,89.52,104.32ZM8,132.6A89.68,89.68,0,0,0,8,88.86,88.73,88.73,0,0,0,8,132.6Zm83.36,20.24c.64-1.44,1.14-2.55,1.64-3.66,1-2.23,2.18-2.68,4.44-1.77a15.06,15.06,0,0,0,3.65,1.36L95,134.28a18.44,18.44,0,0,1-8.39,4.81c-.89.22-.81.64-.52,1.31,1.23,2.88,2.43,5.78,3.65,8.67C90.24,150.23,90.73,151.39,91.35,152.84ZM68.74,134.29,62.6,149.08l2.27-1c.61-.27,1.22-.55,1.84-.8,1.82-.72,3.06-.23,3.9,1.56.57,1.23,1.1,2.48,1.81,4.06,1.89-4.54,3.64-8.75,5.42-13,.27-.65-.18-.72-.55-.81A19,19,0,0,1,68.74,134.29Z"/><path class="cls-1" d="M158.42,32.65c-.83,2.39-2.58,3.64-4.95,4.4-3.53,1.12-7,2.48-10.48,3.7-.86.29-1.26.55-.84,1.59.75,1.87.42,3.87.46,5.82,0,1.49,0,3,0,4.48a5.27,5.27,0,0,1-5.19,5.29,51.56,51.56,0,0,1-5.56,0,5.18,5.18,0,0,1-5.06-5.21c-.05-1.65,0-3.3,0-5,0-.8-.13-1.17-1-.84-2,.75-4.06,1.5-6.11,2.16-.89.29-.81.91-.81,1.57,0,4.64-.12,9.28,0,13.91a6.39,6.39,0,0,1-3.55,6.17,29.74,29.74,0,0,1-9.58,3.32,146.53,146.53,0,0,1-36.16,2,101.63,101.63,0,0,1-19.26-2.6,26.53,26.53,0,0,1-7.18-2.75,6.38,6.38,0,0,1-3.54-6.17c.17-4.58,0-9.17.08-13.76a1.71,1.71,0,0,0-1.41-1.93C27.12,44.93,16,40.93,4.84,37l-1-.36A5.39,5.39,0,0,1,.09,31.45a5.26,5.26,0,0,1,3.74-5c5.27-1.9,10.57-3.76,15.84-5.64Q48,10.7,76.34.54a8.16,8.16,0,0,1,5.84,0q35.71,12.83,71.48,25.55c2.31.82,4,2.05,4.76,4.39ZM39.66,43.78c0-2.22.07-4.23,0-6.23a5.54,5.54,0,0,1,2.55-5,20.94,20.94,0,0,1,6.73-3A92.82,92.82,0,0,1,68.6,26.63a145.36,145.36,0,0,1,37.54,2.06,26.14,26.14,0,0,1,9.92,3.71,5.71,5.71,0,0,1,2.8,5.32c-.11,2,0,3.91,0,6,1.39-.49,2.65-.91,3.89-1.36,2.57-.95,5.37-1.47,7.16-3.9a2.37,2.37,0,0,1,1.15-.74c.93-.3,1-.95,1-1.79,0-3.56,0-7.12,0-10.67a1.55,1.55,0,0,0-1.24-1.76q-25.23-9-50.42-18a3.09,3.09,0,0,0-2.22,0Q46.31,16.94,14.39,28.31l-9,3.23Zm73.91,16c0-6.95-.08-13.9.05-20.85a2.91,2.91,0,0,0-2.18-3.18,54.24,54.24,0,0,0-13.21-3,149.74,149.74,0,0,0-39.9.29,45.4,45.4,0,0,0-11.78,3,2.4,2.4,0,0,0-1.66,2.57c.08,6.08,0,12.16,0,18.24,0,1-.49,2.37.24,2.91s1.76-.48,2.69-.76a84.88,84.88,0,0,1,19.77-3.17C83.07,54.79,98.39,55.11,113.57,59.76ZM45.2,65.9A18.21,18.21,0,0,0,51,68.19a110.15,110.15,0,0,0,25.26,2.87c10.12.15,20.19-.29,30.09-2.56a19.84,19.84,0,0,0,7-2.61,7,7,0,0,0-2.64-1.42,58.09,58.09,0,0,0-12.49-2.75,150.48,150.48,0,0,0-28.07-.9,91.47,91.47,0,0,0-20.41,3.06A11.6,11.6,0,0,0,45.2,65.9ZM153.12,31.54,138.2,26.19c-.73-.27-.88.06-.87.72q0,4.64,0,9.28c0,.69.21.94.91.68Zm-21.05,16.6c0,4.8,0,4.8,4.2,4.53.11,0,.21,0,.31,0,.51,0,.75-.23.75-.75,0-2.46.06-4.93-.06-7.4a2.6,2.6,0,0,0-5.19.22C132,45.87,132.07,47,132.07,48.14Z"/><path class="cls-1" d="M27.49,186.18a4.59,4.59,0,0,1,2.07,1.72,5.26,5.26,0,0,1,0,5.31,4.61,4.61,0,0,1-2.07,1.73,7.76,7.76,0,0,1-3.17.6H21.16v4h-2.6v-14h5.76A7.76,7.76,0,0,1,27.49,186.18Zm-.71,6.44a2.85,2.85,0,0,0,0-4.12,4,4,0,0,0-2.58-.72h-3v5.56h3A4,4,0,0,0,26.78,192.62Z"/><path class="cls-1" d="M37.76,198.85a6.84,6.84,0,0,1-2.7-2.58,7.44,7.44,0,0,1,0-7.38,6.84,6.84,0,0,1,2.7-2.58,8.48,8.48,0,0,1,7.72,0,7,7,0,0,1,2.7,2.57,7.47,7.47,0,0,1,0,7.4,7,7,0,0,1-2.7,2.57,8.48,8.48,0,0,1-7.72,0Zm6.38-2a4.65,4.65,0,0,0,1.76-1.76,5.32,5.32,0,0,0,0-5.06,4.65,4.65,0,0,0-1.76-1.76,5.07,5.07,0,0,0-2.52-.63,5,5,0,0,0-2.52.63,4.51,4.51,0,0,0-1.76,1.76,5.32,5.32,0,0,0,0,5.06,4.51,4.51,0,0,0,1.76,1.76,5,5,0,0,0,2.52.63A5.07,5.07,0,0,0,44.14,196.87Z"/><path class="cls-1" d="M55.13,199.32a6.45,6.45,0,0,1-2.39-1.22l.9-2a7.12,7.12,0,0,0,2.11,1.11,7.57,7.57,0,0,0,2.51.43,4.38,4.38,0,0,0,2.33-.5,1.51,1.51,0,0,0,.77-1.32,1.27,1.27,0,0,0-.43-1,3.1,3.1,0,0,0-1.09-.61c-.44-.15-1-.31-1.8-.5a20.81,20.81,0,0,1-2.59-.76,4.21,4.21,0,0,1-1.7-1.19,3.17,3.17,0,0,1-.71-2.19,3.74,3.74,0,0,1,.63-2.11,4.24,4.24,0,0,1,1.9-1.51,7.72,7.72,0,0,1,3.11-.56,10.24,10.24,0,0,1,2.52.32,7,7,0,0,1,2.14.92l-.82,2a8.48,8.48,0,0,0-1.92-.82,7.11,7.11,0,0,0-1.94-.28,4,4,0,0,0-2.29.52,1.61,1.61,0,0,0-.75,1.38,1.23,1.23,0,0,0,.43,1,3.15,3.15,0,0,0,1.09.6c.44.15,1,.31,1.8.5a19.09,19.09,0,0,1,2.56.75,4.52,4.52,0,0,1,1.71,1.19,3.14,3.14,0,0,1,.71,2.16,3.7,3.7,0,0,1-.63,2.1,4.26,4.26,0,0,1-1.91,1.5,7.87,7.87,0,0,1-3.12.56A10.54,10.54,0,0,1,55.13,199.32Z"/><path class="cls-1" d="M78.06,192.42h2.46V198A8,8,0,0,1,78,199.32a9.58,9.58,0,0,1-3,.46,8,8,0,0,1-3.86-.93,6.89,6.89,0,0,1-2.7-2.57,7.47,7.47,0,0,1,0-7.4,6.91,6.91,0,0,1,2.71-2.57,8.07,8.07,0,0,1,3.89-.93,8.44,8.44,0,0,1,3.2.58,6.25,6.25,0,0,1,2.42,1.7l-1.64,1.6a5.25,5.25,0,0,0-3.86-1.6,5.46,5.46,0,0,0-2.63.62,4.44,4.44,0,0,0-1.8,1.74,5,5,0,0,0-.65,2.56,4.88,4.88,0,0,0,.65,2.52,4.62,4.62,0,0,0,1.8,1.76,5.23,5.23,0,0,0,2.61.64,5.65,5.65,0,0,0,2.88-.72Z"/><path class="cls-1" d="M95.1,199.58l-2.86-4.1-.54,0H88.54v4.08h-2.6v-14H91.7a7.76,7.76,0,0,1,3.17.6,4.59,4.59,0,0,1,2.07,1.72,5.23,5.23,0,0,1,0,5.38,4.55,4.55,0,0,1-2.21,1.7l3.22,4.6Zm-.94-11.08a4,4,0,0,0-2.58-.72h-3v5.58h3a4,4,0,0,0,2.58-.73,2.57,2.57,0,0,0,.88-2.07A2.53,2.53,0,0,0,94.16,188.5Z"/><path class="cls-1" d="M111.64,196.34h-7l-1.38,3.24h-2.68l6.3-14h2.56l6.32,14H113Zm-.86-2-2.64-6.12-2.62,6.12Z"/><path class="cls-1" d="M119.54,185.58h6.12a8.79,8.79,0,0,1,4,.87,6.44,6.44,0,0,1,2.7,2.46,7.5,7.5,0,0,1,0,7.34,6.44,6.44,0,0,1-2.7,2.46,8.79,8.79,0,0,1-4,.87h-6.12Zm6,11.8a6,6,0,0,0,2.71-.59,4.18,4.18,0,0,0,1.8-1.68,5.4,5.4,0,0,0,0-5.06,4.18,4.18,0,0,0-1.8-1.68,6,6,0,0,0-2.71-.59h-3.4v9.6Z"/><path class="cls-1" d="M140.74,198.85a6.84,6.84,0,0,1-2.7-2.58,7.44,7.44,0,0,1,0-7.38,6.84,6.84,0,0,1,2.7-2.58,8.48,8.48,0,0,1,7.72,0,7,7,0,0,1,2.7,2.57,7.47,7.47,0,0,1,0,7.4,7,7,0,0,1-2.7,2.57,8.48,8.48,0,0,1-7.72,0Zm6.38-2a4.65,4.65,0,0,0,1.76-1.76,5.32,5.32,0,0,0,0-5.06,4.65,4.65,0,0,0-1.76-1.76,5.07,5.07,0,0,0-2.52-.63,5,5,0,0,0-2.52.63,4.51,4.51,0,0,0-1.76,1.76,5.32,5.32,0,0,0,0,5.06,4.51,4.51,0,0,0,1.76,1.76,5,5,0,0,0,2.52.63A5.07,5.07,0,0,0,147.12,196.87Z"/></g></g></svg>