<svg xmlns="http://www.w3.org/2000/svg" viewBox="0 0 254.69 102.17"><defs><style>.cls-1{fill:#004796;}</style></defs><g id="Capa_2" data-name="Capa 2"><g id="Capa_1-2" data-name="Capa 1"><path class="cls-1" d="M114,21.68v4.94H93.34V0h20.12V4.94h-14v5.79h12.36v4.79H99.47v6.16Z"/><path class="cls-1" d="M143.09,26.62l0-16-7.83,13.16h-2.78L124.64,11V26.62h-5.78V0H124l10,16.54L143.74,0h5l.08,26.62Z"/><path class="cls-1" d="M155.18,0h6.16V26.62h-6.16Z"/><path class="cls-1" d="M111.12,44.47a7.21,7.21,0,0,1,1.87,5,8,8,0,0,1-1.22,4.28,8.48,8.48,0,0,1-3.71,3.14,14.27,14.27,0,0,1-6.1,1.18,21.19,21.19,0,0,1-5.54-.74,14.48,14.48,0,0,1-4.62-2.11l2.4-4.72a11.52,11.52,0,0,0,3.52,1.77,13.47,13.47,0,0,0,4.08.63,6.48,6.48,0,0,0,3.66-.9,2.88,2.88,0,0,0,1.33-2.53q0-3.27-5-3.27H99V42.17l5.48-6.2H93.13V31h18.64v4l-6,6.85A9,9,0,0,1,111.12,44.47Z"/><path class="cls-1" d="M133.3,42a8.18,8.18,0,0,1,3.3,2.91,7.88,7.88,0,0,1,1.22,4.36,8.25,8.25,0,0,1-1.33,4.67,8.66,8.66,0,0,1-3.63,3.1,11.78,11.78,0,0,1-5.12,1.09q-5.58,0-8.75-3.43t-3.15-9.77a16.4,16.4,0,0,1,1.71-7.76,11.63,11.63,0,0,1,4.77-4.9,14.53,14.53,0,0,1,7.1-1.68,17,17,0,0,1,4.08.48,10.55,10.55,0,0,1,3.33,1.35l-2.28,4.52a8.79,8.79,0,0,0-5-1.33,7.22,7.22,0,0,0-5.36,2,8.26,8.26,0,0,0-2.13,5.74A8.89,8.89,0,0,1,128.66,41,10.49,10.49,0,0,1,133.3,42Zm-2.69,10.46a3.6,3.6,0,0,0,1.24-2.89,3.65,3.65,0,0,0-1.24-2.91,5.49,5.49,0,0,0-6.59,0,3.84,3.84,0,0,0,0,5.72,5,5,0,0,0,3.42,1.11A4.73,4.73,0,0,0,130.61,52.44Z"/><path class="cls-1" d="M145.58,56.47a11,11,0,0,1-4.05-4.73,17.14,17.14,0,0,1-1.46-7.4,17.14,17.14,0,0,1,1.46-7.4,11,11,0,0,1,4.05-4.73,11.41,11.41,0,0,1,11.79,0,11,11,0,0,1,4,4.73,17.14,17.14,0,0,1,1.47,7.4,17.14,17.14,0,0,1-1.47,7.4,11,11,0,0,1-4,4.73,11.41,11.41,0,0,1-11.79,0Zm9.72-5.66c.92-1.4,1.39-3.55,1.39-6.47s-.47-5.07-1.39-6.47a4.51,4.51,0,0,0-7.61,0c-.92,1.4-1.39,3.55-1.39,6.47s.47,5.07,1.39,6.47a4.51,4.51,0,0,0,7.61,0Z"/><path class="cls-1" d="M254.69,63.06a4,4,0,0,1-8,0c0-7.52-27.4-24.62-72.51-24.62a4,4,0,0,1,0-8c20.76,0,40.85,3.64,56.56,10.26C246,47.11,254.69,55.26,254.69,63.06Z"/><path class="cls-1" d="M228.72,82.56l-8.92,9.35-9,9.39a2.81,2.81,0,0,1-4.72-1.13l.37-9.37c-22.26,4.59-50.32,7.12-79.16,7.12-33.26,0-64.58-3.26-88.18-9.16C13.17,82.26,0,73.61,0,63.06c0-22.67,61.79-30.68,80.73-32.6a4,4,0,1,1,.8,8c-22.19,2.24-41.06,6-54.56,10.95C15.09,53.69,8,58.81,8,63.06,8,74.27,53.4,89.92,127.34,89.92c28,0,55.19-2.41,76.83-6.79l-5.37-7.68a2.8,2.8,0,0,1,3.33-3.52l12.62,3,12.58,3A2.81,2.81,0,0,1,228.72,82.56Z"/></g></g></svg>