<svg xmlns="http://www.w3.org/2000/svg" viewBox="0 0 160.6 187.91"><defs><style>.cls-1,.cls-2{fill:#004796;}.cls-2{stroke:#004796;stroke-miterlimit:10;stroke-width:2px;}</style></defs><g id="Capa_2" data-name="Capa 2"><g id="Capa_1-2" data-name="Capa 1"><path class="cls-1" d="M50.37,181.7a3.55,3.55,0,0,1,.68,2.21,3.25,3.25,0,0,1-1.4,2.81,7,7,0,0,1-4.08,1h-7v-14h6.56a6.42,6.42,0,0,1,3.82,1,3.13,3.13,0,0,1,1.34,2.67,3.51,3.51,0,0,1-.48,1.84,3.29,3.29,0,0,1-1.32,1.24A3.69,3.69,0,0,1,50.37,181.7Zm-9.16-5.95v3.86h3.68a3.71,3.71,0,0,0,2.09-.49,1.61,1.61,0,0,0,.73-1.43,1.63,1.63,0,0,0-.73-1.45,3.71,3.71,0,0,0-2.09-.49Zm7.22,7.9c0-1.35-1-2-3-2h-4.2v4h4.2C47.42,185.67,48.43,185,48.43,183.65Z"/><path class="cls-1" d="M57.33,186.28a6.34,6.34,0,0,1-1.62-4.67v-7.9h2.6v7.8q0,4.13,3.56,4.12t3.54-4.12v-7.8H68v7.9a6.38,6.38,0,0,1-1.61,4.67,6,6,0,0,1-4.51,1.63A6.08,6.08,0,0,1,57.33,186.28Z"/><path class="cls-1" d="M84.49,185.51v2.2H72.55V186l8.24-10.06h-8.1v-2.2H84.23v1.74L76,185.51Z"/><path class="cls-1" d="M91.39,187a6.84,6.84,0,0,1-2.7-2.58,7.44,7.44,0,0,1,0-7.38,6.84,6.84,0,0,1,2.7-2.58,8.48,8.48,0,0,1,7.72,0,6.89,6.89,0,0,1,2.7,2.57,7.47,7.47,0,0,1,0,7.4,6.89,6.89,0,0,1-2.7,2.57,8.48,8.48,0,0,1-7.72,0Zm6.38-2a4.58,4.58,0,0,0,1.76-1.76,5.32,5.32,0,0,0,0-5.06,4.58,4.58,0,0,0-1.76-1.76,5.36,5.36,0,0,0-5,0A4.58,4.58,0,0,0,91,178.18a5.32,5.32,0,0,0,0,5.06A4.58,4.58,0,0,0,92.73,185a5.35,5.35,0,0,0,5,0Zm-1.5-15.17h2.94l-3.48,2.74H93.57Z"/><path class="cls-1" d="M120,173.71v14h-2.14l-7.72-9.48v9.48h-2.58v-14h2.14l7.72,9.48v-9.48Z"/><path class="cls-2" d="M159.6,118.05a14.93,14.93,0,0,1-1.81,4.06,9.81,9.81,0,0,1-8.36,3.86q-69.14,0-138.27,0C4.79,126,1,122.05,1,115.66c0-18.17,0-36.34,0-54.5,0-6.3,2.78-11.28,8.34-14.17,3.16-1.65,4.21-3.51,4.13-7.07-.26-12.13-.1-24.26-.1-36.39,0-2.21.31-2.53,2.47-2.53H144.69c2.2,0,2.52.31,2.52,2.48,0,13.22,0,26.43,0,39.64a2.17,2.17,0,0,0,1.36,2.26c3.39,1.7,6.55,3.68,8.59,7.07a28.5,28.5,0,0,1,2.47,6.13ZM80.27,3.77q-31.2,0-62.4,0c-1.28,0-1.74.21-1.74,1.65q.09,30.42,0,60.85a2.13,2.13,0,0,0,1.23,2.17q28,15.69,56,31.43a13.54,13.54,0,0,0,14,0q27.93-15.68,55.82-31.36a2.23,2.23,0,0,0,1.3-2.29q0-30.27,0-60.54c0-1.64-.5-1.89-2-1.88Q111.39,3.8,80.27,3.77ZM156.83,64c-.74.38-1.24.62-1.72.89q-32.84,18.48-65.64,37c-6.16,3.48-12.15,3.49-18.32,0Q38.3,83.25,5.37,64.8c-.46-.26-.86-.75-1.59-.58,0,10.22,0,20.43,0,30.65,0,1.08.63,1,1.3,1,4.86,0,9.71,0,14.56,0a7.92,7.92,0,0,1,1.54.1,1.33,1.33,0,0,1-.12,2.63c-.41,0-.82,0-1.24,0-4.8,0-9.6,0-14.4,0-1.23,0-1.76.23-1.66,1.59a27.37,27.37,0,0,1,0,4.79c-.13,1.45.43,1.67,1.73,1.66,12,0,24,0,35.92,0,1.07,0,2.3,0,2.27,1.4s-1.27,1.38-2.34,1.37H33.12c-9.29,0-18.58,0-27.87,0-1.09,0-1.57.18-1.5,1.41.12,2.06,0,4.13.07,6.19A6.27,6.27,0,0,0,8,122.72a9.66,9.66,0,0,0,3.81.5h137c.31,0,.62,0,.93,0,4.46-.13,7-2.77,7.06-7.25,0-5.47,0-10.94,0-16.41,0-1.26-.28-1.66-1.6-1.65-9.13.06-18.27,0-27.4,0-1.1,0-2.6.3-2.55-1.4s1.52-1.35,2.63-1.36c9.09,0,18.17,0,27.26,0,1.42,0,1.69-.42,1.66-1.73-.09-3.41,0-6.82,0-10.22Zm-9.57,2.15c3.1-1.75,6-3.38,8.83-5a1.3,1.3,0,0,0,.73-1.36c-.1-4.76-4.92-10.68-9.56-11.68ZM13.34,47.8c-1.27.72-2.32,1.26-3.31,1.89a13.78,13.78,0,0,0-6.17,9.4A1.81,1.81,0,0,0,5,61.43c1.53.71,3,1.64,4.45,2.47l3.91,2.16Z"/><path class="cls-2" d="M79.53,59.53h-39a13.31,13.31,0,0,1-1.55,0,1.23,1.23,0,0,1-1.18-1.21,1.25,1.25,0,0,1,1.1-1.44,6.42,6.42,0,0,1,1.39-.08h79.07c.93,0,1.72.36,1.74,1.36s-.81,1.41-1.81,1.41H79.53Z"/><path class="cls-2" d="M49.05,46.32c-3,0-6.09,0-9.13,0-1.85,0-2.18-.33-2.18-2.19q0-9.14,0-18.27c0-1.91.35-2.25,2.28-2.25H58.13c1.85,0,2.27.42,2.28,2.28q0,9.06,0,18.11c0,2-.35,2.31-2.38,2.32ZM40.47,34.93c0,2.47,0,5,0,7.42,0,.93.28,1.26,1.24,1.26q7.43-.06,14.84,0c.89,0,1.14-.32,1.14-1.18,0-5,0-10,0-15,0-.8-.25-1.06-1.06-1.06q-7.5,0-15,0c-.88,0-1.16.28-1.14,1.15C40.5,30,40.47,32.45,40.47,34.93Z"/><path class="cls-2" d="M92.83,26.37H67.46a12.82,12.82,0,0,1-1.39,0A1.27,1.27,0,0,1,64.82,25,1.29,1.29,0,0,1,66,23.66a6.37,6.37,0,0,1,1.24-.05h51.82c1,0,2,.19,2,1.38s-.94,1.41-2,1.4c-4,0-7.95,0-11.92,0Z"/><path class="cls-2" d="M92.84,43.15H67.44a11.27,11.27,0,0,1-1.54-.06,1.3,1.3,0,0,1-.13-2.54,6,6,0,0,1,1.53-.15h51.88c1,0,2,.25,1.92,1.48s-1,1.28-1.93,1.28Z"/></g></g></svg>