<svg xmlns="http://www.w3.org/2000/svg" viewBox="0 0 130.27 186.91"><defs><style>.cls-1{fill:#004796;}</style></defs><g id="Capa_2" data-name="Capa 2"><g id="Capa_1-2" data-name="Capa 1"><path class="cls-1" d="M.43,36.21A78.24,78.24,0,0,1,3.2,23.76a50.71,50.71,0,0,1,12-19.22,14.8,14.8,0,0,1,21-.38c5.44,5.17,10.74,10.5,15.93,15.92a12.11,12.11,0,0,1-1.42,18.23c-3,2.38-6.12,4.64-9.18,7C37.28,48.5,36.43,53,39.16,57.55A94.52,94.52,0,0,0,72.7,91.11c4.64,2.76,9.09,1.9,12.4-2.42,2.19-2.86,4.32-5.76,6.52-8.62,5.1-6.62,13.28-7.19,19.23-1.32Q118.2,86,125.48,93.39c6.47,6.54,6.38,15.72-.2,22.16a49.32,49.32,0,0,1-11.34,8.27c-1.91,1-3.46.72-4.29-.77s-.24-3,1.65-4a44.88,44.88,0,0,0,10.29-7.55c4.18-4.1,4.28-9.84.17-14q-7.44-7.58-15-15c-3.35-3.29-7.72-2.93-10.62.81-2.28,2.94-4.47,6-6.74,8.9-5,6.49-12.46,7.88-19.48,3.7A100.33,100.33,0,0,1,34.43,60.35c-4.19-7.05-2.77-14.45,3.76-19.46,3-2.26,6-4.46,8.9-6.75,3.71-2.87,4-7.29.74-10.63Q40.44,16,32.94,8.62c-4.33-4.26-10.12-4.17-14.25.27C6.65,21.82,3.12,37,7.92,53.82,18.65,91.5,43.3,114.75,81.51,123.53a42.19,42.19,0,0,0,16.38.15c2.14-.35,3.49.42,3.8,2.1s-.71,2.87-2.86,3.28A51.07,51.07,0,0,1,76.16,128c-32.47-8.56-55.55-28.19-69-59A81.47,81.47,0,0,1,.73,45.47a3.59,3.59,0,0,0-.3-.83Z"/><path class="cls-1" d="M3.65,186A6.9,6.9,0,0,1,1,183.41,7.51,7.51,0,0,1,1,176a6.93,6.93,0,0,1,2.69-2.57,7.89,7.89,0,0,1,3.83-.93,8,8,0,0,1,3.14.6,6.35,6.35,0,0,1,2.4,1.74l-1.68,1.58a4.91,4.91,0,0,0-3.74-1.64,5.24,5.24,0,0,0-2.58.63,4.54,4.54,0,0,0-1.78,1.75,5.36,5.36,0,0,0,0,5.08A4.54,4.54,0,0,0,5,184a5.24,5.24,0,0,0,2.58.63A4.86,4.86,0,0,0,11.36,183l1.68,1.6a6.39,6.39,0,0,1-2.41,1.74,8,8,0,0,1-3.15.6A7.89,7.89,0,0,1,3.65,186Z"/><path class="cls-1" d="M19.92,186a6.84,6.84,0,0,1-2.7-2.58,7.44,7.44,0,0,1,0-7.38,6.84,6.84,0,0,1,2.7-2.58,8.48,8.48,0,0,1,7.72,0,6.89,6.89,0,0,1,2.7,2.57,7.47,7.47,0,0,1,0,7.4,6.89,6.89,0,0,1-2.7,2.57,8.48,8.48,0,0,1-7.72,0Zm6.38-2a4.58,4.58,0,0,0,1.76-1.76,5.32,5.32,0,0,0,0-5.06,4.58,4.58,0,0,0-1.76-1.76,5.36,5.36,0,0,0-5,0,4.58,4.58,0,0,0-1.76,1.76,5.32,5.32,0,0,0,0,5.06A4.58,4.58,0,0,0,21.26,184a5.35,5.35,0,0,0,5,0Z"/><path class="cls-1" d="M48.52,172.71v14H46.38l-7.72-9.48v9.48H36.08v-14h2.14l7.72,9.48v-9.48Z"/><path class="cls-1" d="M57.12,174.91H52.48v-2.2H64.36v2.2H59.72v11.8h-2.6Z"/><path class="cls-1" d="M76.7,183.47h-7l-1.38,3.24H65.64l6.3-14H74.5l6.32,14H78.1Zm-.86-2-2.64-6.12-2.62,6.12Z"/><path class="cls-1" d="M87.05,186a6.9,6.9,0,0,1-2.68-2.57,7.51,7.51,0,0,1,0-7.4,6.93,6.93,0,0,1,2.69-2.57,7.89,7.89,0,0,1,3.83-.93,8,8,0,0,1,3.14.6,6.35,6.35,0,0,1,2.4,1.74l-1.68,1.58A4.91,4.91,0,0,0,91,174.79a5.24,5.24,0,0,0-2.58.63,4.54,4.54,0,0,0-1.78,1.75,5.36,5.36,0,0,0,0,5.08A4.54,4.54,0,0,0,88.44,184a5.24,5.24,0,0,0,2.58.63A4.86,4.86,0,0,0,94.76,183l1.68,1.6A6.39,6.39,0,0,1,94,186.31a8,8,0,0,1-3.15.6A7.89,7.89,0,0,1,87.05,186Z"/><path class="cls-1" d="M103.62,174.91H99v-2.2h11.88v2.2h-4.64v11.8h-2.6Z"/><path class="cls-1" d="M117.3,186a6.84,6.84,0,0,1-2.7-2.58,7.44,7.44,0,0,1,0-7.38,6.84,6.84,0,0,1,2.7-2.58,8.48,8.48,0,0,1,7.72,0,6.89,6.89,0,0,1,2.7,2.57,7.47,7.47,0,0,1,0,7.4A6.89,6.89,0,0,1,125,186a8.48,8.48,0,0,1-7.72,0Zm6.38-2a4.58,4.58,0,0,0,1.76-1.76,5.32,5.32,0,0,0,0-5.06,4.58,4.58,0,0,0-1.76-1.76,5.36,5.36,0,0,0-5,0,4.58,4.58,0,0,0-1.76,1.76,5.32,5.32,0,0,0,0,5.06,4.58,4.58,0,0,0,1.76,1.76,5.35,5.35,0,0,0,5,0Z"/></g></g></svg>