<svg xmlns="http://www.w3.org/2000/svg" viewBox="0 0 173.46 200.64"><defs><style>.cls-1{fill:#004796;}</style></defs><g id="Capa_2" data-name="Capa 2"><g id="Capa_1-2" data-name="Capa 1"><path class="cls-1" d="M91.27,0a23,23,0,0,1,2.57,1.31A7.39,7.39,0,0,1,97,7.81c0,1.65,0,3.3,0,4.94,0,.9.19,1.37,1.17,1.6a63.89,63.89,0,0,1,18.72,7.76,1.2,1.2,0,0,0,1.82-.23c1.18-1.29,2.44-2.51,3.7-3.72,3.31-3.16,7.46-3.21,10.73,0s6.75,6.65,10.05,10,3.19,7.5-.05,10.85q-1.82,1.89-3.72,3.71c-.51.49-.71.88-.28,1.57a64.85,64.85,0,0,1,7.94,19.13c.2.79.61.93,1.31.94,2.16,0,4.33-.06,6.47.14a6.91,6.91,0,0,1,6.44,6.72q.19,7.88,0,15.75A7,7,0,0,1,155,93.66a51.75,51.75,0,0,1-6.47.11,1.26,1.26,0,0,0-1.47,1.14,64.57,64.57,0,0,1-7.84,18.85,1.15,1.15,0,0,0,.27,1.7c1.27,1.2,2.5,2.44,3.71,3.7,3.22,3.35,3.24,7.52,0,10.85s-6.58,6.67-9.93,9.93-7.5,3.22-10.85,0c-1.26-1.21-2.5-2.44-3.7-3.72A1.15,1.15,0,0,0,117,136a64.84,64.84,0,0,1-18.85,7.84A1.26,1.26,0,0,0,97,145.28a51.75,51.75,0,0,1-.11,6.47,7,7,0,0,1-6.69,6.32q-7.87.21-15.75,0a6.93,6.93,0,0,1-6.72-6.44,55.15,55.15,0,0,1-.13-6.17c0-1-.21-1.46-1.24-1.71A63.32,63.32,0,0,1,47.66,136a1.14,1.14,0,0,0-1.71.21c-1.18,1.28-2.44,2.51-3.7,3.72-3.35,3.24-7.52,3.28-10.84.05s-6.74-6.65-10-10.05-3.13-7.42,0-10.73c1.25-1.3,2.52-2.58,3.83-3.81a1.06,1.06,0,0,0,.2-1.58,65,65,0,0,1-7.88-19c-.21-.85-.63-1-1.4-1-1.7,0-3.4,0-5.1,0-3.91-.08-6.16-1.72-7.54-5.41A1.07,1.07,0,0,0,3.24,88V70.11a1.07,1.07,0,0,0,.27-.34c1.38-3.69,3.63-5.33,7.54-5.41,1.59,0,3.19-.07,4.78,0,1,0,1.55-.23,1.81-1.31A62.58,62.58,0,0,1,25.35,44.5,1.3,1.3,0,0,0,25,42.56c-1.2-1.12-2.35-2.3-3.5-3.48-3.31-3.41-3.37-7.57-.08-10.95S28,21.47,31.38,18.2s7.49-3.23,10.83,0c1.23,1.18,2.44,2.37,3.6,3.61a1.29,1.29,0,0,0,1.94.31A62.39,62.39,0,0,1,66.3,14.4c1.09-.26,1.36-.78,1.31-1.81-.08-1.59,0-3.19,0-4.79a7.4,7.4,0,0,1,3.2-6.49A23,23,0,0,1,73.36,0ZM82.38,4.64c-2.27,0-4.53,0-6.79,0s-3.3.94-3.34,3.27,0,4.63,0,6.94c0,2.5-.36,3-2.74,3.51a62.55,62.55,0,0,0-21.23,8.83c-1.72,1.12-2.59,1-4.08-.48-1.72-1.7-3.4-3.43-5.14-5.12s-2.91-1.56-4.53,0q-4.83,4.77-9.61,9.6c-1.65,1.67-1.65,3,0,4.66s3.5,3.48,5.23,5.25c1.24,1.27,1.37,2.22.4,3.71a63.36,63.36,0,0,0-9,21.81c-.38,1.81-1,2.3-2.89,2.33-2.42,0-4.84,0-7.26,0s-3.46.94-3.47,3.45q0,6.63,0,13.28c0,2.43.92,3.37,3.34,3.4s4.64,0,7,0,2.92.4,3.41,2.67a62.92,62.92,0,0,0,8.88,21.38c1.07,1.64,1,2.52-.46,3.94-1.73,1.76-3.51,3.48-5.23,5.25-1.51,1.57-1.5,2.87,0,4.43q4.83,4.89,9.72,9.72c1.61,1.59,2.9,1.59,4.53,0s3.49-3.5,5.25-5.23c1.36-1.33,2.26-1.46,3.83-.43a63.29,63.29,0,0,0,21.66,9c1.92.41,2.4,1,2.42,3,0,2.36,0,4.73,0,7.1,0,2.65.9,3.55,3.51,3.56H88.88c2.54,0,3.47-.9,3.5-3.42s0-4.84,0-7.25c0-1.93.52-2.57,2.43-3a63.46,63.46,0,0,0,21.66-9c1.58-1,2.47-.9,3.83.44,1.76,1.73,3.48,3.5,5.25,5.23,1.62,1.57,2.93,1.57,4.54,0q4.83-4.78,9.61-9.61c1.66-1.68,1.66-3,0-4.65s-3.5-3.48-5.23-5.25c-1.26-1.28-1.4-2.23-.43-3.71a63.22,63.22,0,0,0,9.05-21.8c.39-1.83,1-2.32,2.88-2.35,2.47,0,4.94,0,7.41,0s3.32-1,3.33-3.42q0-6.64,0-13.28c0-2.5-.93-3.4-3.48-3.43s-4.84,0-7.26,0c-1.85,0-2.49-.53-2.88-2.35a63.36,63.36,0,0,0-9-21.81c-1-1.49-.84-2.42.42-3.71,1.73-1.76,3.5-3.48,5.23-5.25s1.63-3,0-4.65q-4.72-4.77-9.5-9.5c-1.73-1.72-3-1.72-4.76,0s-3.41,3.43-5.14,5.12c-1.35,1.33-2.25,1.45-3.83.42a63.24,63.24,0,0,0-21.66-9c-1.91-.4-2.39-1-2.42-3,0-2.37,0-4.74,0-7.11,0-2.65-.91-3.54-3.51-3.55Z"/><path class="cls-1" d="M119.3,79.21c-.27,20.49-16.93,37.08-37.09,36.84a37,37,0,1,1,.28-73.93C103,42.28,119.57,59.11,119.3,79.21Zm-4.63-.16a32.36,32.36,0,1,0-32.3,32.38A32.54,32.54,0,0,0,114.67,79.05Z"/><path class="cls-1" d="M129.2,80.13c-.1,21.15-15.56,40.33-37.4,44.81-14.12,2.89-27-.31-38.53-9.09-1.34-1-1.63-2.36-.81-3.47s2.2-1.28,3.55-.24a41.69,41.69,0,0,0,14.74,7.5c14.64,3.85,27.84,1,39.34-8.89a42,42,0,0,0,11.75-46.49,12.78,12.78,0,0,1-.62-1.9,2.15,2.15,0,0,1,1.38-2.74,2.21,2.21,0,0,1,2.92,1.32c.61,1.46,1.15,3,1.62,4.48A50.63,50.63,0,0,1,129.2,80.13Z"/><path class="cls-1" d="M35.47,75.84C36.43,59,45.65,44.26,64,36c11.84-5.32,24.06-5.08,36.15-.29,1.51.61,2.09,1.71,1.66,3s-1.72,1.89-3.31,1.3a46.67,46.67,0,0,0-10.4-2.76,41,41,0,0,0-29.72,7.08,41,41,0,0,0-18,29.84,41.22,41.22,0,0,0,7.42,29.21c.5.72,1.06,1.39,1.54,2.12A2.34,2.34,0,0,1,49,109a2.38,2.38,0,0,1-3.38-.73,54.5,54.5,0,0,1-4-5.87C37.78,95.87,35.29,86.48,35.47,75.84Z"/><path class="cls-1" d="M119.29,51a2.44,2.44,0,0,1-1.23,2.11,2,2,0,0,1-2.44-.23c-2.41-2.32-4.79-4.67-7.09-7.08a2.24,2.24,0,0,1,2.84-3.33A36.07,36.07,0,0,1,119,50,2.93,2.93,0,0,1,119.29,51Z"/><path class="cls-1" d="M4.64,188.64H0v-2.2H11.88v2.2H7.24v11.8H4.64Z"/><path class="cls-1" d="M26.34,198.26v2.18H15.84v-14H26.06v2.18H18.44v3.64H25.2v2.14H18.44v3.86Z"/><path class="cls-1" d="M33.83,199.71a6.9,6.9,0,0,1-2.68-2.57,7.51,7.51,0,0,1,0-7.4,6.86,6.86,0,0,1,2.69-2.57,7.89,7.89,0,0,1,3.83-.93,8,8,0,0,1,3.14.6,6.35,6.35,0,0,1,2.4,1.74l-1.68,1.58a4.87,4.87,0,0,0-3.74-1.64,5.24,5.24,0,0,0-2.58.63,4.54,4.54,0,0,0-1.78,1.75,5,5,0,0,0-.64,2.54,5,5,0,0,0,.64,2.54,4.61,4.61,0,0,0,1.78,1.75,5.24,5.24,0,0,0,2.58.63,4.89,4.89,0,0,0,3.74-1.66l1.68,1.6A6.39,6.39,0,0,1,40.81,200a8,8,0,0,1-3.15.6A7.89,7.89,0,0,1,33.83,199.71Z"/><path class="cls-1" d="M60.16,186.44v14H58L50.3,191v9.48H47.72v-14h2.14l7.72,9.48v-9.48Z"/><path class="cls-1" d="M68.6,199.71a6.84,6.84,0,0,1-2.7-2.58,7.44,7.44,0,0,1,0-7.38,6.84,6.84,0,0,1,2.7-2.58,8.48,8.48,0,0,1,7.72,0,6.82,6.82,0,0,1,2.7,2.57,7.47,7.47,0,0,1,0,7.4,6.89,6.89,0,0,1-2.7,2.57,8.48,8.48,0,0,1-7.72,0Zm6.38-2A4.58,4.58,0,0,0,76.74,196a5,5,0,0,0,.64-2.53,5,5,0,0,0-.64-2.53A4.51,4.51,0,0,0,75,189.15a5.35,5.35,0,0,0-5,0,4.51,4.51,0,0,0-1.76,1.76,5,5,0,0,0-.64,2.53,5,5,0,0,0,.64,2.53,4.58,4.58,0,0,0,1.76,1.76,5.35,5.35,0,0,0,5,0Z"/><path class="cls-1" d="M84.76,186.44h2.6v11.8h7.32v2.2H84.76Z"/><path class="cls-1" d="M101.16,199.71a6.84,6.84,0,0,1-2.7-2.58,7.44,7.44,0,0,1,0-7.38,6.84,6.84,0,0,1,2.7-2.58,8.48,8.48,0,0,1,7.72,0,6.82,6.82,0,0,1,2.7,2.57,7.47,7.47,0,0,1,0,7.4,6.89,6.89,0,0,1-2.7,2.57,8.48,8.48,0,0,1-7.72,0Zm6.38-2A4.58,4.58,0,0,0,109.3,196a5,5,0,0,0,.64-2.53,5,5,0,0,0-.64-2.53,4.51,4.51,0,0,0-1.76-1.76,5.36,5.36,0,0,0-5,0,4.51,4.51,0,0,0-1.76,1.76,5,5,0,0,0-.64,2.53,5,5,0,0,0,.64,2.53,4.58,4.58,0,0,0,1.76,1.76,5.36,5.36,0,0,0,5,0ZM106,182.56H109l-3.48,2.74h-2.16Z"/><path class="cls-1" d="M126.88,193.28h2.46v5.58a8,8,0,0,1-2.52,1.32,9.89,9.89,0,0,1-3,.46,8,8,0,0,1-3.86-.93,6.89,6.89,0,0,1-2.7-2.57,7.47,7.47,0,0,1,0-7.4,6.85,6.85,0,0,1,2.71-2.57,8.07,8.07,0,0,1,3.89-.93,8.44,8.44,0,0,1,3.2.58,6.15,6.15,0,0,1,2.42,1.7l-1.64,1.6a5.25,5.25,0,0,0-3.86-1.6,5.38,5.38,0,0,0-2.63.62,4.44,4.44,0,0,0-1.8,1.74,5.29,5.29,0,0,0,0,5.08,4.68,4.68,0,0,0,1.8,1.76,5.37,5.37,0,0,0,2.61.64,5.65,5.65,0,0,0,2.88-.72Z"/><path class="cls-1" d="M134.76,186.44h2.6v14h-2.6Z"/><path class="cls-1" d="M145.79,199.71a6.83,6.83,0,0,1-2.68-2.57,7.51,7.51,0,0,1,0-7.4,6.86,6.86,0,0,1,2.69-2.57,7.89,7.89,0,0,1,3.83-.93,8,8,0,0,1,3.14.6,6.35,6.35,0,0,1,2.4,1.74l-1.68,1.58a4.87,4.87,0,0,0-3.74-1.64,5.24,5.24,0,0,0-2.58.63,4.54,4.54,0,0,0-1.78,1.75,5,5,0,0,0-.64,2.54,5,5,0,0,0,.64,2.54,4.61,4.61,0,0,0,1.78,1.75,5.24,5.24,0,0,0,2.58.63,4.89,4.89,0,0,0,3.74-1.66l1.68,1.6a6.39,6.39,0,0,1-2.41,1.74,8,8,0,0,1-3.15.6A7.89,7.89,0,0,1,145.79,199.71Z"/><path class="cls-1" d="M162.06,199.71a6.84,6.84,0,0,1-2.7-2.58,7.44,7.44,0,0,1,0-7.38,6.84,6.84,0,0,1,2.7-2.58,8.48,8.48,0,0,1,7.72,0,6.82,6.82,0,0,1,2.7,2.57,7.47,7.47,0,0,1,0,7.4,6.89,6.89,0,0,1-2.7,2.57,8.48,8.48,0,0,1-7.72,0Zm6.38-2A4.58,4.58,0,0,0,170.2,196a5,5,0,0,0,.64-2.53,5,5,0,0,0-.64-2.53,4.51,4.51,0,0,0-1.76-1.76,5.36,5.36,0,0,0-5,0,4.51,4.51,0,0,0-1.76,1.76,5,5,0,0,0-.64,2.53,5,5,0,0,0,.64,2.53,4.58,4.58,0,0,0,1.76,1.76,5.35,5.35,0,0,0,5,0Z"/></g></g></svg>