<svg xmlns="http://www.w3.org/2000/svg" viewBox="0 0 144.85 188.24"><defs><style>.cls-1{fill:#004796;}</style></defs><g id="Capa_2" data-name="Capa 2"><g id="Capa_1-2" data-name="Capa 1"><g id="_8r3FEF.tif" data-name="8r3FEF.tif"><path class="cls-1" d="M72.4,0h40.79c13.72,0,25,7.73,29.83,20.56a28.42,28.42,0,0,1,1.8,10.12c0,15.51.08,31,0,46.53A30.9,30.9,0,0,1,113.42,108c-13.94,0-27.89,0-41.83-.06a5.16,5.16,0,0,0-4,1.68Q50.8,126.5,33.92,143.33a3.8,3.8,0,0,1-3.24,1.38c-1.93-.23-3-1.59-3-3.79q0-11.37,0-22.75c0-3,0-6,0-9.07,0-1-.29-1.28-1.26-1.46-12.59-2.34-21-9.6-25-21.75a28,28,0,0,1-1.29-9c0-15.28-.15-30.56,0-45.84.17-13,6.39-22.47,18-28.26A29.31,29.31,0,0,1,31.39,0Zm.15,6.88H31.75a25.79,25.79,0,0,0-6.94.81A24.08,24.08,0,0,0,7,31c-.07,15.32,0,30.64,0,46a22.11,22.11,0,0,0,1.9,9.39c4.22,9.16,11.38,14.13,21.49,14.76,3.17.2,4.18,1.24,4.18,4.45q0,12.87,0,25.73c0,.4-.2,1,.23,1.17s.69-.37,1-.63q14.5-14.47,29-29a5.41,5.41,0,0,1,4.17-1.73c14.75,0,29.49,0,44.24,0a25.35,25.35,0,0,0,7-.83,24.08,24.08,0,0,0,17.81-23.36c.05-15.32,0-30.64,0-46a22.25,22.25,0,0,0-2.35-10.32c-4.59-8.94-12-13.65-22-13.74C99.9,6.79,86.22,6.88,72.55,6.88Z"/><path class="cls-1" d="M75.9,54c0-6,0-11.94,0-17.91,0-2.8,2-4.42,4.46-3.73a3.83,3.83,0,0,1,2.19,1.9q7.64,12.21,15.26,24.42c.09.13.18.25.26.39s.2.58.53.51.27-.5.27-.78q0-6.27,0-12.52c0-3.52,0-7.05,0-10.57a3.33,3.33,0,0,1,2.43-3.36,3.42,3.42,0,0,1,3.9,1.46,3.91,3.91,0,0,1,.52,2.21q0,15.79,0,31.58c0,1.46,0,2.91,0,4.37,0,1.94-.85,3.19-2.38,3.64-1.76.52-3.16-.07-4.26-1.82Q91.5,61.58,83.85,49.37c-.21-.34-.29-1.08-.84-.9s-.23.82-.23,1.25c0,7.43,0,14.85,0,22.28,0,2.71-2,4.31-4.43,3.64a3.36,3.36,0,0,1-2.42-3.49c0-2.56,0-5.13,0-7.69V54Z"/><path class="cls-1" d="M39.13,54q0-8.73,0-17.46c0-3.12,1.17-4.31,4.31-4.31q10.86,0,21.71,0c2.47,0,4,1.54,3.8,3.72A3.35,3.35,0,0,1,65.33,39c-4.1,0-8.19,0-12.29,0-1.91,0-3.83,0-5.74,0-1,0-1.33.38-1.32,1.35.05,2.91,0,5.82,0,8.73,0,1.4.1,1.47,1.53,1.47,5.9,0,11.79,0,17.69,0,2.69,0,4.29,2.06,3.57,4.48a3.38,3.38,0,0,1-3.54,2.36c-4.55,0-9.11,0-13.67,0-1.49,0-3,0-4.48,0-.76,0-1.11.28-1.1,1.08q0,4.65,0,9.3c0,1,.48,1.14,1.29,1.13q9,0,17.92,0a3.4,3.4,0,0,1,3.69,2.77,3.34,3.34,0,0,1-2.82,4,11,11,0,0,1-1.72.08H43.44c-3.14,0-4.31-1.18-4.31-4.3Z"/></g><path class="cls-1" d="M20.92,174h2.6v14h-2.6Z"/><path class="cls-1" d="M29.3,174h6.12a8.79,8.79,0,0,1,4,.87,6.44,6.44,0,0,1,2.7,2.46,7.5,7.5,0,0,1,0,7.34,6.44,6.44,0,0,1-2.7,2.46,8.79,8.79,0,0,1-4,.87H29.3Zm6,11.8a5.88,5.88,0,0,0,2.71-.59,4.18,4.18,0,0,0,1.8-1.68,5.4,5.4,0,0,0,0-5.06,4.3,4.3,0,0,0-1.8-1.68,6,6,0,0,0-2.71-.59H31.9v9.6Z"/><path class="cls-1" d="M47.82,174h2.6v14h-2.6Z"/><path class="cls-1" d="M58.88,187.31a6.84,6.84,0,0,1-2.7-2.58,7.44,7.44,0,0,1,0-7.38,6.84,6.84,0,0,1,2.7-2.58,8.48,8.48,0,0,1,7.72,0,7,7,0,0,1,2.7,2.57,7.47,7.47,0,0,1,0,7.4,7,7,0,0,1-2.7,2.57,8.48,8.48,0,0,1-7.72,0Zm6.38-2A4.58,4.58,0,0,0,67,183.57a5.09,5.09,0,0,0,.64-2.53,5.14,5.14,0,0,0-.64-2.53,4.65,4.65,0,0,0-1.76-1.76,5.07,5.07,0,0,0-2.52-.63,5,5,0,0,0-2.52.63,4.51,4.51,0,0,0-1.76,1.76,5,5,0,0,0-.64,2.53,5,5,0,0,0,.64,2.53,4.45,4.45,0,0,0,1.76,1.76,5,5,0,0,0,2.52.63A5.07,5.07,0,0,0,65.26,185.33Z"/><path class="cls-1" d="M87.9,188l0-9.28-4.6,7.68H82.12l-4.6-7.56V188H75V174h2.14l5.56,9.28L88.2,174h2.14l0,14Z"/><path class="cls-1" d="M105.22,184.8h-7L96.84,188H94.16l6.3-14H103l6.32,14h-2.72Zm-.86-2-2.64-6.12-2.62,6.12Z"/><path class="cls-1" d="M114.33,187.78a6.31,6.31,0,0,1-2.39-1.22l.9-2a6.69,6.69,0,0,0,2.11,1.11,7.57,7.57,0,0,0,2.51.43,4.29,4.29,0,0,0,2.33-.5,1.51,1.51,0,0,0,.77-1.32,1.3,1.3,0,0,0-.43-1,3.1,3.1,0,0,0-1.09-.61c-.44-.14-1-.31-1.8-.5a19.22,19.22,0,0,1-2.59-.76,4.21,4.21,0,0,1-1.7-1.19,3.17,3.17,0,0,1-.71-2.19,3.76,3.76,0,0,1,.63-2.11,4.31,4.31,0,0,1,1.9-1.51,7.72,7.72,0,0,1,3.11-.56,10.24,10.24,0,0,1,2.52.32,7.2,7.2,0,0,1,2.14.92l-.82,2a8.48,8.48,0,0,0-1.92-.82,7.51,7.51,0,0,0-1.94-.28,4.1,4.1,0,0,0-2.29.52,1.61,1.61,0,0,0-.75,1.38,1.23,1.23,0,0,0,.43,1,2.86,2.86,0,0,0,1.09.6c.44.15,1,.32,1.8.5a19.09,19.09,0,0,1,2.56.75,4.52,4.52,0,0,1,1.71,1.19,3.18,3.18,0,0,1,.71,2.16,3.66,3.66,0,0,1-.63,2.1,4.26,4.26,0,0,1-1.91,1.5,7.7,7.7,0,0,1-3.12.56A10.54,10.54,0,0,1,114.33,187.78Z"/></g></g></svg>