<svg xmlns="http://www.w3.org/2000/svg" viewBox="0 0 130.71 201.94"><defs><style>.cls-1{fill:#004796;}</style></defs><g id="Capa_2" data-name="Capa 2"><g id="Capa_1-2" data-name="Capa 1"><path class="cls-1" d="M38.35,160.79a6,6,0,0,1-2.06-1.88c-3.09-4.16-6.22-8.29-9.28-12.47a3.15,3.15,0,0,0-2.45-1.38c-5.35-.57-10.7-1.22-16-1.88-2.43-.3-3.12-2.05-1.77-4.39,4.62-8,9.23-16,13.91-24,.62-1.06.61-1.54-.45-2.31-2.88-2.11-4-5.21-4.48-8.65-.52-4-.36-7.94-.5-11.91a14.31,14.31,0,0,0-4.26-10,89.65,89.65,0,0,1-7.82-8.37C-1,68-1,62.77,3.14,57.18A78.06,78.06,0,0,1,10.74,49a14.89,14.89,0,0,0,4.51-10.66c.12-4.33-.17-8.7.76-13,1.25-5.82,5.21-9.14,11.15-9.73,4.28-.42,8.57-.19,12.85-.52a13.27,13.27,0,0,0,8.49-3.93c2.44-2.37,4.88-4.74,7.39-7A16.66,16.66,0,0,1,61.74.62c4.27-1.45,8-.23,11.5,2.29a59.47,59.47,0,0,1,7.93,7.36,15.65,15.65,0,0,0,12,5.05c3.4,0,6.79,0,10.19.34,6.73.62,11,4.86,11.63,11.59.38,3.92.31,7.84.47,11.76a13.78,13.78,0,0,0,4.06,9.56c2.32,2.34,4.57,4.74,6.83,7.14A18.72,18.72,0,0,1,129,59.26a11.56,11.56,0,0,1,0,12.22,25.82,25.82,0,0,1-4,5.06c-1.86,1.92-3.69,3.86-5.57,5.76a13.37,13.37,0,0,0-3.93,9.13c-.19,4,0,8-.5,12.07-.45,3.79-1.71,7.12-5,9.33-1,.64-.38,1.11-.07,1.65l13.65,23.63c.23.41.49.81.7,1.23,1,2,.11,3.57-2.08,3.84-5.34.66-10.69,1.31-16,1.88a3.15,3.15,0,0,0-2.45,1.38c-3.1,4.22-6.27,8.39-9.38,12.59a5.9,5.9,0,0,1-2,1.76H91.11a6.69,6.69,0,0,1-2-2.32c-5.47-9.52-11-19-16.43-28.53-.57-1-1-1.14-2-.59a10.91,10.91,0,0,1-10.66,0c-1-.55-1.42-.41-2,.59-5.44,9.53-11,19-16.42,28.53a6.61,6.61,0,0,1-2,2.32ZM65.43,126c2.18,0,4-1.16,5.68-2.52,2.83-2.25,5.25-4.95,7.87-7.43a18.86,18.86,0,0,1,12.72-5.28c3.92-.15,7.85.09,11.75-.47,4.31-.63,6.33-2.76,6.87-7.07a66.51,66.51,0,0,0,.3-9.25,21,21,0,0,1,7-16.66,59.25,59.25,0,0,0,5.53-5.78c3.79-4.5,3.8-7.79,0-12.27-2.26-2.69-4.85-5.07-7.24-7.63a18.64,18.64,0,0,1-5.14-12c-.26-4,0-8-.44-11.92-.58-4.74-2.86-6.89-7.61-7.39-4.28-.45-8.58,0-12.85-.52a17.3,17.3,0,0,1-9.18-3.67C78.3,14.2,76.23,11.91,74,9.8a26.72,26.72,0,0,0-5.14-4.09,6.71,6.71,0,0,0-6.88,0,14.18,14.18,0,0,0-2.82,2C56.54,10.1,54,12.56,51.38,15a17.67,17.67,0,0,1-10.79,4.86c-4.28.4-8.58,0-12.86.51-4.46.49-6.78,2.71-7.33,7.15a66.51,66.51,0,0,0-.3,9.25,21,21,0,0,1-7,16.65,60.5,60.5,0,0,0-5.73,6c-3.54,4.27-3.5,7.64.06,11.91,2.38,2.86,5.16,5.34,7.65,8.1a18.53,18.53,0,0,1,4.82,11.47c.3,4.12-.06,8.27.48,12.38s2.59,6.34,6.8,7a80.84,80.84,0,0,0,8.93.39,40.76,40.76,0,0,1,7.48.71c3.91.89,6.8,3.35,9.56,6,2.11,2,4.1,4.2,6.39,6A9.61,9.61,0,0,0,65.43,126Zm-24.55-10.3-1.22-.12c-4.22-.37-8.48,0-12.68-.61-1-.15-1.26.44-1.64,1.08q-6.25,10.88-12.53,21.73a1.42,1.42,0,0,0-.36,1.07c.48.08,1,.19,1.5.25,4.3.53,8.61,1.08,12.92,1.53a4,4,0,0,1,3,1.76q3.92,5.31,7.9,10.56c.26.34.4.86,1.06.92q7.89-13.68,15.82-27.39a.84.84,0,0,0-.16-1.21c-2.52-2.36-4.9-4.87-7.52-7.12-1-.86-1.57-.91-2.31.42-2.92,5.25-6,10.43-9,15.63-1,1.76-2.4,2.34-3.66,1.57s-1.47-2.1-.4-4c1.35-2.36,2.72-4.71,4.08-7.06ZM92.1,154.11c3-4.05,5.93-7.89,8.78-11.75a3.93,3.93,0,0,1,3-1.75c2.6-.23,5.2-.54,7.78-.92a62.26,62.26,0,0,0,6.83-1c-4.23-7.32-8.41-14.43-12.43-21.63-1-1.69-1.86-2.46-3.87-2a21.32,21.32,0,0,1-4.53.21c-2.34,0-4.67,0-7.42,0l5.17,9c1.54,2.67,3.1,5.33,4.6,8,.83,1.51.4,3-.91,3.6a2.59,2.59,0,0,1-3.26-1.41q-4.63-8-9.25-16c-1-1.67-1-1.7-2.56-.48-2.64,2.07-4.85,4.62-7.35,6.83-.88.78-.77,1.34-.26,2.22q7.11,12.19,14.13,24.42C91,152.27,91.48,153.06,92.1,154.11Z"/><path class="cls-1" d="M22.66,65.42a42.69,42.69,0,0,1,85.38-.2C108.26,88.64,88.91,108,65.38,108A42.83,42.83,0,0,1,22.66,65.42Zm80.67.09a38,38,0,0,0-75.93-.29c-.23,20.7,16.75,37.84,37.66,38.09S103.12,86.57,103.33,65.51Z"/><path class="cls-1" d="M98,65a32.69,32.69,0,0,1-35.52,32.8,33.42,33.42,0,0,1-13-3.94c-1.42-.77-1.94-2-1.39-3.23a2.35,2.35,0,0,1,3.45-1A28.63,28.63,0,0,0,66,93.22,27.89,27.89,0,0,0,71.1,38.06c-18.3-4-35.5,11.57-33.46,30.15a28.07,28.07,0,0,0,4.5,12.57c.17.26.36.51.51.78a2.4,2.4,0,0,1-.54,3.36,2.33,2.33,0,0,1-3.4-.79A31.28,31.28,0,0,1,34.22,75,32.66,32.66,0,0,1,58.83,33.41c18.71-4,37.42,9.87,39,29C97.87,63.35,97.94,64.34,98,65Z"/><path class="cls-1" d="M66.49,42.91a22.47,22.47,0,0,1,21.37,21.6c.12,2.29-1.33,3.68-3.15,3-1.23-.45-1.5-1.47-1.55-2.64a17.69,17.69,0,0,0-6-12.82,17.1,17.1,0,0,0-10.49-4.41,13.27,13.27,0,0,1-1.4-.14c-1.53-.26-2.32-1.17-2.17-2.54a2.27,2.27,0,0,1,2.47-2.11A7.4,7.4,0,0,1,66.49,42.91Z"/><path class="cls-1" d="M44.12,195.73a3.51,3.51,0,0,1,.69,2.21,3.24,3.24,0,0,1-1.4,2.81,7.06,7.06,0,0,1-4.08,1h-7v-14h6.56a6.51,6.51,0,0,1,3.82,1,3.12,3.12,0,0,1,1.33,2.67,3.48,3.48,0,0,1-.47,1.84,3.22,3.22,0,0,1-1.32,1.24A3.73,3.73,0,0,1,44.12,195.73ZM35,189.78v3.86h3.68a3.73,3.73,0,0,0,2.09-.49,1.62,1.62,0,0,0,.73-1.43,1.65,1.65,0,0,0-.73-1.45,3.82,3.82,0,0,0-2.09-.49Zm7.22,7.9c0-1.34-1-2-3-2H35v4h4.19C41.18,199.7,42.19,199,42.19,197.68Z"/><path class="cls-1" d="M60.08,199.56v2.18H49.58v-14H59.8v2.18H52.19v3.64H59v2.14H52.19v3.86Z"/><path class="cls-1" d="M67.58,201a6.77,6.77,0,0,1-2.68-2.57,7.51,7.51,0,0,1,0-7.4,6.93,6.93,0,0,1,2.69-2.57,7.87,7.87,0,0,1,3.83-.93,8,8,0,0,1,3.14.6,6.51,6.51,0,0,1,2.4,1.74l-1.68,1.58a4.92,4.92,0,0,0-3.74-1.64,5.24,5.24,0,0,0-2.58.63,4.54,4.54,0,0,0-1.78,1.75,5,5,0,0,0-.64,2.54,5,5,0,0,0,.64,2.54A4.47,4.47,0,0,0,69,199a5.24,5.24,0,0,0,2.58.63A4.87,4.87,0,0,0,75.29,198L77,199.6a6.47,6.47,0,0,1-2.41,1.74,8.11,8.11,0,0,1-3.15.6A7.87,7.87,0,0,1,67.58,201Z"/><path class="cls-1" d="M90.25,198.5h-7l-1.38,3.24H79.19l6.3-14h2.56l6.32,14H91.65Zm-.86-2-2.64-6.12-2.62,6.12Z"/><path class="cls-1" d="M99.36,201.48A6.31,6.31,0,0,1,97,200.26l.9-2a6.69,6.69,0,0,0,2.11,1.11,7.57,7.57,0,0,0,2.51.43,4.29,4.29,0,0,0,2.33-.5,1.51,1.51,0,0,0,.77-1.32,1.3,1.3,0,0,0-.43-1,3.1,3.1,0,0,0-1.09-.61c-.44-.14-1-.31-1.8-.5a19.22,19.22,0,0,1-2.59-.76,4.21,4.21,0,0,1-1.7-1.19,3.17,3.17,0,0,1-.71-2.19,3.76,3.76,0,0,1,.63-2.11,4.31,4.31,0,0,1,1.9-1.51,7.72,7.72,0,0,1,3.11-.56,10.24,10.24,0,0,1,2.52.32,7.2,7.2,0,0,1,2.14.92l-.82,2a8.48,8.48,0,0,0-1.92-.82,7.51,7.51,0,0,0-1.94-.28,4.1,4.1,0,0,0-2.29.52,1.61,1.61,0,0,0-.75,1.38,1.23,1.23,0,0,0,.43,1,2.86,2.86,0,0,0,1.09.6c.44.15,1,.32,1.8.5a19.09,19.09,0,0,1,2.56.75,4.52,4.52,0,0,1,1.71,1.19,3.18,3.18,0,0,1,.71,2.16,3.66,3.66,0,0,1-.63,2.1,4.26,4.26,0,0,1-1.91,1.5,7.7,7.7,0,0,1-3.12.56A10.54,10.54,0,0,1,99.36,201.48Z"/></g></g></svg>