<svg xmlns="http://www.w3.org/2000/svg" viewBox="0 0 180.9 181.57"><defs><style>.cls-1{fill:#004796;}</style></defs><g id="Capa_2" data-name="Capa 2"><g id="Capa_1-2" data-name="Capa 1"><g id="wzMpsw.tif"><path class="cls-1" d="M85.94,120c-5.89,0-10.34-3.8-11.14-9.32-.2-1.41-.56-1.65-1.85-1-6.94,3.29-14.25-.51-15.64-8.06-.33-1.81-.37-1.83-2.09-1A10.85,10.85,0,0,1,44.91,81.5c1.62-1,1.62-1,.25-2.22a10.84,10.84,0,0,1,1.77-17.64c3.43-2,6.93-3.8,10.42-5.66,1.89-1,3.36-.69,4.11.79s.14,2.82-1.74,3.85c-3.17,1.74-6.36,3.45-9.53,5.2-3.39,1.88-4.48,5-2.81,8s4.87,3.68,8.28,1.83L80.1,62.34c.44-.24.86-.5,1.31-.7a2.59,2.59,0,1,1,2.47,4.55c-2.22,1.3-4.51,2.49-6.78,3.73Q62.64,77.8,48.18,85.67c-2.71,1.48-3.92,4.18-3.09,6.74a5.71,5.71,0,0,0,6.11,4,6.44,6.44,0,0,0,2.46-.89L88.07,76.74c.44-.23.87-.49,1.32-.67a2.67,2.67,0,0,1,3.46,1,2.61,2.61,0,0,1-1,3.55c-2.66,1.54-5.38,3-8.08,4.44-6.07,3.31-12.15,6.6-18.21,9.93a5.42,5.42,0,0,0-3.06,5.41,5.36,5.36,0,0,0,3.47,4.81,6,6,0,0,0,5.5-.62C78.25,100.84,85.1,97.13,92,93.41c1.64-.89,3.27-1.81,4.92-2.66s3.21-.47,3.9.82.14,2.85-1.43,3.72c-5.34,2.94-10.69,5.84-16,8.76-3.71,2-4.5,6.13-1.76,9.11A5.15,5.15,0,0,0,88,114.24c5.11-2.67,10.16-5.45,15.22-8.21q16.71-9.07,33.4-18.18a30.65,30.65,0,0,0,10.63-9.42c2.62-3.72,5.19-7.48,7.85-11.18a2.21,2.21,0,0,0,.09-2.69Q142.14,40.65,129.14,16.7c-2.45-4.49-2.37-4.78,2.05-7.18L147.25.79c2.48-1.34,3.66-1,5,1.38q14,25.67,27.93,51.34c1.31,2.42.95,3.6-1.51,4.94q-8.08,4.42-16.2,8.8a7.32,7.32,0,0,0-2.66,2.37c-2.45,3.58-5,7.09-7.41,10.69a38.22,38.22,0,0,1-13.92,12.54q-23.61,12.77-47.16,25.65A9.7,9.7,0,0,1,85.94,120Zm62-113.53a3.57,3.57,0,0,0-.6.21C143.14,9,139,11.27,134.76,13.54c-.93.51-.8,1.08-.36,1.88q12.45,22.82,24.84,45.66c.67,1.24,1.32,1.3,2.48.65,3.72-2.1,7.47-4.16,11.27-6.13,1.38-.71,1.66-1.34.87-2.77C169.52,45,165.29,37.14,161,29.29L149.28,7.77C149,7.21,148.78,6.52,147.93,6.48Z"/><path class="cls-1" d="M62.14,10.55c-4.8-.13-9.16,1.36-13.62,2.24-2.2.44-4.38,1-6.58,1.5A2,2,0,0,0,40.21,16q-4.92,20-9.9,39.95c-1,4-1.95,8-3,12a3,3,0,0,0,1.17,3.68c3.18,2.53,6.21,5.24,9.29,7.88,1.52,1.3,1.84,3,.84,4.17s-2.65,1.16-4.23-.17c-3.31-2.8-6.62-5.6-9.88-8.46a9,9,0,0,0-4-2.12C14.69,71.49,9,70,3.2,68.59c-3-.73-3.66-1.66-2.92-4.68C1.86,57.46,3.49,51,5.09,44.59q4.16-16.7,8.29-33.4c.33-1.33.65-2.66,1-4,.68-2.43,1.61-3,4.12-2.44,3,.69,6,1.47,9,2.22s6,1.42,8.94,2.27,5.41-.41,8.07-.9c5.61-1,11.05-2.87,16.83-3,4.74-.12,9.25,1,13.78,2.15l23.16,5.78c5.11,1.28,10.24,2.49,15.34,3.84a10.65,10.65,0,0,1,7.89,13.43c-1.52,5.74-7.4,9-13.46,7.51q-9.75-2.43-19.49-4.88c-1-.26-1.67-.22-2.21.93C80.79,45.89,69.15,51.26,56.54,47.9c-1.33-.36-2.66-.67-4-1.06a2.53,2.53,0,0,1-1.91-3.14,2.61,2.61,0,0,1,3.21-1.86c1.66.36,3.3.82,5,1.21,10.56,2.49,20.3-3,23.57-13.33.78-2.46,1.82-3,4.32-2.38,7.45,1.87,14.9,3.75,22.36,5.59,3.36.83,6.07-.44,7.2-3.28a5.56,5.56,0,0,0-2.45-6.94,18.89,18.89,0,0,0-4.72-1.41c-10.17-2.54-20.35-5-30.53-7.54L67.53,11A20.14,20.14,0,0,0,62.14,10.55ZM6.05,62.41c-.22,1.4.39,1.59,1.08,1.77,4.27,1,8.52,2.14,12.79,3.17,2,.49,2.11.35,2.61-1.73,1-4.11,2-8.21,3-12.31q4.67-18.77,9.35-37.54c.24-1,0-1.58-1-1.84-4.42-1.08-8.85-2.17-13.26-3.3-1.21-.3-1.8,0-2.11,1.29Q13,34.23,7.48,56.5C7,58.63,6.45,60.77,6.05,62.41Z"/></g><path class="cls-1" d="M22.55,180.64a6.83,6.83,0,0,1-2.68-2.57,7.51,7.51,0,0,1,0-7.4,6.93,6.93,0,0,1,2.69-2.57,7.89,7.89,0,0,1,3.83-.93,8,8,0,0,1,3.14.6,6.43,6.43,0,0,1,2.4,1.74l-1.68,1.58a4.92,4.92,0,0,0-3.74-1.64,5.24,5.24,0,0,0-2.58.63,4.47,4.47,0,0,0-1.78,1.75,5.36,5.36,0,0,0,0,5.08,4.47,4.47,0,0,0,1.78,1.75,5.24,5.24,0,0,0,2.58.63,4.87,4.87,0,0,0,3.74-1.66l1.68,1.6A6.47,6.47,0,0,1,29.53,181a8.07,8.07,0,0,1-3.15.6A7.87,7.87,0,0,1,22.55,180.64Z"/><path class="cls-1" d="M38.82,180.64a6.84,6.84,0,0,1-2.7-2.58,7.44,7.44,0,0,1,0-7.38,6.84,6.84,0,0,1,2.7-2.58,8.48,8.48,0,0,1,7.72,0,7,7,0,0,1,2.7,2.57,7.47,7.47,0,0,1,0,7.4,7,7,0,0,1-2.7,2.57,8.48,8.48,0,0,1-7.72,0Zm6.38-2A4.58,4.58,0,0,0,47,176.9a5.32,5.32,0,0,0,0-5.06,4.58,4.58,0,0,0-1.76-1.76,5.07,5.07,0,0,0-2.52-.63,5,5,0,0,0-2.52.63,4.51,4.51,0,0,0-1.76,1.76,5.32,5.32,0,0,0,0,5.06,4.51,4.51,0,0,0,1.76,1.76,5,5,0,0,0,2.52.63A5.07,5.07,0,0,0,45.2,178.66Z"/><path class="cls-1" d="M67.42,167.37v14H65.28l-7.72-9.48v9.48H55v-14h2.14l7.72,9.48v-9.48Z"/><path class="cls-1" d="M85.88,167.37l-6.1,14H77.22l-6.12-14h2.82l4.66,10.8,4.7-10.8Z"/><path class="cls-1" d="M99.86,179.19v2.18H89.36v-14H99.58v2.18H92v3.64h6.76v2.14H92v3.86Z"/><path class="cls-1" d="M117.2,167.37v14h-2.14l-7.72-9.48v9.48h-2.58v-14h2.14l7.72,9.48v-9.48Z"/><path class="cls-1" d="M123,167.37h2.6v14H123Z"/><path class="cls-1" d="M134,180.64a6.84,6.84,0,0,1-2.7-2.58,7.44,7.44,0,0,1,0-7.38,6.84,6.84,0,0,1,2.7-2.58,8.48,8.48,0,0,1,7.72,0,7,7,0,0,1,2.7,2.57,7.47,7.47,0,0,1,0,7.4,7,7,0,0,1-2.7,2.57,8.48,8.48,0,0,1-7.72,0Zm6.38-2a4.58,4.58,0,0,0,1.76-1.76,5.32,5.32,0,0,0,0-5.06,4.58,4.58,0,0,0-1.76-1.76,5.35,5.35,0,0,0-5,0,4.58,4.58,0,0,0-1.76,1.76,5.32,5.32,0,0,0,0,5.06,4.58,4.58,0,0,0,1.76,1.76,5.35,5.35,0,0,0,5,0Z"/><path class="cls-1" d="M151.39,181.11a6.45,6.45,0,0,1-2.39-1.22l.9-2A7.25,7.25,0,0,0,152,179a7.57,7.57,0,0,0,2.51.43,4.38,4.38,0,0,0,2.33-.5,1.51,1.51,0,0,0,.77-1.32,1.27,1.27,0,0,0-.43-1,3.1,3.1,0,0,0-1.09-.61c-.44-.15-1-.31-1.8-.5a20.81,20.81,0,0,1-2.59-.76,4.21,4.21,0,0,1-1.7-1.19,3.17,3.17,0,0,1-.71-2.19,3.74,3.74,0,0,1,.63-2.11,4.24,4.24,0,0,1,1.9-1.51,7.75,7.75,0,0,1,3.11-.56,10.24,10.24,0,0,1,2.52.32,7,7,0,0,1,2.14.92l-.82,2a8.29,8.29,0,0,0-1.92-.82,7.11,7.11,0,0,0-1.94-.28,4,4,0,0,0-2.29.52,1.61,1.61,0,0,0-.75,1.38,1.23,1.23,0,0,0,.43,1,3.25,3.25,0,0,0,1.09.6c.44.15,1,.31,1.8.5a19.09,19.09,0,0,1,2.56.75,4.44,4.44,0,0,1,1.71,1.19,3.14,3.14,0,0,1,.71,2.16,3.7,3.7,0,0,1-.63,2.1,4.26,4.26,0,0,1-1.91,1.5,7.87,7.87,0,0,1-3.12.56A10.92,10.92,0,0,1,151.39,181.11Z"/></g></g></svg>