<svg xmlns="http://www.w3.org/2000/svg" viewBox="0 0 146.24 197.48"><defs><style>.cls-1{fill:#004796;}</style></defs><g id="Capa_2" data-name="Capa 2"><g id="Capa_1-2" data-name="Capa 1"><path class="cls-1" d="M112.25,146.25h-64c-.93-.73-1.76-1.51-1.25-2.85s1.59-1.44,2.8-1.44c5.81,0,11.61,0,17.42,0C71,142,71,142,71,138.19c0-1.14-.34-1.42-1.45-1.41-6.42.05-12.84,0-19.27,0-5.42,0-10.84,0-16.27,0-.44,0-1-.24-1.3.29-1.05,1.82.55,4.77,2.66,4.85,1.42,0,2.85,0,4.28,0,1.23,0,2.33.16,2.79,1.46s-.31,2.15-1.31,2.83H34c-4.48-1.85-5.61-3.54-5.61-8.45q0-39.92,0-79.83c0-1.28-.3-1.69-1.64-1.67-5.86.08-11.71,0-17.57,0-3,0-4.57-1.35-5.06-4.31-.33-2-.57-4-.86-5.93C2.19,38.59,1.1,31.11.05,23.62A4.46,4.46,0,0,1,3.38,18.5c1-.3,1.93-.53,2.89-.78q20.16-5.2,40.3-10.43c.51-.13,1.12-.08,1.43-.75,1.59-3.43,5.2-4.39,8-6.41.26-.19.74-.12,1.11-.12H89.2A3,3,0,0,1,91,.44c1.86,1.25,3.73,2.48,5.58,3.73A3.5,3.5,0,0,1,98,6c.24.82.79,1,1.54,1.23,13.85,3.56,27.69,7.18,41.55,10.71,2.27.58,4.22,1.38,5.13,3.74v2.57a2.62,2.62,0,0,0-.26.63q-1.89,13.28-3.77,26.55c-.48,3.45-2,4.85-5.47,4.86-5.66,0-11.33,0-17,0-1.88,0-1.88,0-1.88,1.94V137.8C117.87,142.7,116.73,144.4,112.25,146.25ZM70.7,30c-2.43,1.59-4.84,3.18-7.26,4.75-3.28,2.13-6.26,1.13-7.54-2.54-1.11-3.18-2.24-6.36-3.29-9.57-.28-.84-.63-1-1.45-.76-6.29,1.67-12.58,3.33-18.89,4.9-1.05.26-1.28.65-1.1,1.65a104.8,104.8,0,0,1,1.49,18.89q0,41.76,0,83.51c0,1.32.23,1.78,1.68,1.77q17.49-.1,35,0c1.4,0,1.73-.37,1.72-1.73Q71,81.2,71,31.6A2.38,2.38,0,0,0,70.7,30Zm4.56,51.15v49.54c0,1.87,0,1.87,1.81,1.87h34.69c1.82,0,1.82,0,1.82-1.85q0-41.89,0-83.8a102,102,0,0,1,1.47-18.46c.18-1,0-1.41-1.06-1.68q-9.4-2.34-18.76-4.85c-1.09-.29-1.39,0-1.7,1-1,3.21-2.16,6.39-3.28,9.57s-4.23,4.35-7.2,2.44c-2.13-1.35-4.22-2.76-6.34-4.12-.38-.25-.79-.81-1.2-.6s-.24.94-.24,1.43Q75.26,56.33,75.26,81.11Zm-46.89-36a102.44,102.44,0,0,0-3.66-26.34c-.32-1.17-.76-1.26-1.77-1-2.05.59-4.13,1.08-6.2,1.62-1.06.28-2.47.27-3.06,1s.13,2.14.18,3.26a2.89,2.89,0,0,1,0,.29,2.15,2.15,0,0,1-1.78,2.37,2.06,2.06,0,0,1-2.42-1.7c-.16-.74-.24-1.5-.33-2.25s-.27-1-1.09-.75a19.85,19.85,0,0,1-3,.79c-.88.16-1,.58-.86,1.39Q6.22,36.15,8,48.51c.5,3.54.47,3.48,4,3.57,1.35,0,1.68-.34,1.48-1.65-.87-5.59-1.65-11.2-2.46-16.8-.25-1.7.42-2.85,1.78-3s2.21.69,2.45,2.35c.85,5.93,1.72,11.86,2.53,17.8.13,1,.47,1.35,1.51,1.32q3.91-.12,7.85,0c1.11,0,1.37-.34,1.33-1.38C28.31,48.84,28.37,47,28.37,45.12Zm89.5,0c0,1.95,0,3.9,0,5.85,0,.88.28,1.14,1.14,1.12,2.71,0,5.43-.06,8.14,0,1,0,1.27-.37,1.4-1.29q2.06-14.69,4.19-29.36c.12-.8,0-1.2-.85-1.41-2.91-.7-5.81-1.44-8.69-2.25-1-.28-1.37-.05-1.65,1A101.46,101.46,0,0,0,117.87,45.09ZM61,4.36c0,.5.3.75.5,1C65.07,10.59,68.72,15.76,72.31,21c.68,1,1,.93,1.62,0,3.56-5.17,7.19-10.3,10.77-15.45.23-.33.61-.61.58-1.15ZM94,8.34c.19-.69-.19-.87-.5-1.07-.78-.54-1.62-1-2.36-1.6s-1.06-.4-1.55.31q-6.37,9.19-12.84,18.35c-.52.73-.45,1.05.3,1.52,2.57,1.62,5.13,3.27,7.63,5,1,.7,1.41.65,1.83-.59,2.37-7.07,4.81-14.11,7.23-21.17ZM69.93,25c-.11-.17-.23-.37-.36-.56Q63,15.12,56.47,5.78c-.19-.28-.34-.76-.86-.41L52.4,7.5c-.43.29-.23.69-.11,1q3.83,11.12,7.64,22.24c.24.69.5.8,1.11.39,2.77-1.84,5.57-3.65,8.35-5.47C69.61,25.54,69.93,25.46,69.93,25ZM94.48,136.81H78.92c-3.69,0-3.64,0-3.69,3.72,0,1.22.38,1.47,1.53,1.46,11,0,22.09,0,33.13,0,2.93,0,3.66-.8,3.72-3.75,0-1.11-.27-1.45-1.42-1.44C106.29,136.84,100.39,136.81,94.48,136.81ZM135.2,52.05a8.17,8.17,0,0,1,1,0c1.25.19,1.67-.29,1.84-1.58,1.2-8.9,2.5-17.79,3.82-26.68.15-1-.18-1.27-1-1.44a16.23,16.23,0,0,1-2.62-.67c-1-.38-1.28,0-1.41,1Q135,36.08,133,49.47C132.66,52.05,132.65,52.05,135.2,52.05ZM30.65,22.75l.14-.05,19.32-5c.7-.17.64-.51.46-1C50,15.13,49.44,13.56,49,12c-.21-.68-.54-.73-1.15-.57q-9.24,2.43-18.49,4.8c-.69.17-.8.43-.61,1.08.46,1.6.85,3.21,1.26,4.83C30.05,22.49,30.08,22.9,30.65,22.75Zm87-6.15c0-.55-.7-.4-1.11-.51q-7.58-2-15.18-3.93c-1.23-.31-2.67-1.25-3.66-.7s-1,2.26-1.41,3.45c-.92,2.57-.9,2.6,1.73,3.29q8.49,2.21,17,4.37c.37.09,1,.62,1.18-.16C116.69,20.58,117.12,18.73,117.65,16.6Z"/><path class="cls-1" d="M65.77,74.94c0,2.75,0,5.51,0,8.27s-.93,4-3.36,4.87c-2.84,1.07-5.7,2.08-8.54,3.16a5.42,5.42,0,0,1-4,0c-2.88-1.1-5.78-2.15-8.69-3.2a4.55,4.55,0,0,1-3.3-4.63c0-5.7,0-11.41,0-17.12,0-3,1.87-4.76,4.86-4.78q9.06,0,18.12,0c3.09,0,4.86,1.79,4.92,4.86v8.56ZM61.49,70c0-1.18,0-2.14,0-3.08s-.23-1.18-1.12-1.17c-5.71,0-11.41,0-17.12,0-.75,0-1.14.18-1.13,1,0,2,0,4,0,6,0,.51,0,1,.67,1.07,4.31.58,8.52,2.61,13,1,.53-.19,1.12-.2,1.67-.34,1.29-.31,3-.07,3.77-1S61.4,71.08,61.49,70Zm0,11.14c0-.62-.05-1.24,0-1.85.11-1-.37-1.2-1.25-1-1.06.26-2.16.38-3.2.68a18.24,18.24,0,0,1-10.38,0c-1.09-.32-2.23-.46-3.34-.71-.81-.18-1.26,0-1.2,1,.07,1.23,0,2.47,0,3.7a1,1,0,0,0,.76,1.18c3,1,5.83,2.76,8.84,3,2.28.18,4.71-1.47,7.08-2.3l.14,0C61.49,83.89,61.49,83.89,61.49,81.18Z"/><path class="cls-1" d="M51.74,51.64c-2.19,0-4.37,0-6.56,0-1.62,0-2.62-.9-2.6-2.2s1-2.06,2.56-2.07q6.69,0,13.39,0c1.56,0,2.52.83,2.53,2.09a2.24,2.24,0,0,1-2.48,2.18C56.3,51.66,54,51.63,51.74,51.64Z"/><path class="cls-1" d="M80.46,74.81c0-2.81,0-5.61,0-8.42,0-3.06,1.82-4.86,4.9-4.87q9.06,0,18.12,0c3,0,4.84,1.78,4.87,4.77,0,5.7,0,11.41,0,17.12a4.58,4.58,0,0,1-3.28,4.65l-8.82,3.25a5.11,5.11,0,0,1-3.75,0c-2.93-1.11-5.88-2.17-8.82-3.27a4.43,4.43,0,0,1-3.23-4.65C80.44,80.51,80.46,77.66,80.46,74.81Zm13.93-9c-1.8,0-3.61,0-5.42,0-1.36,0-3.1-.6-4,.29s-.22,2.55-.23,3.87c0,3.79,0,3.88,3.72,4.51,2.41.4,4.75,1.45,7.28.94s4.84-1,7.27-1.44a1.11,1.11,0,0,0,1.08-1.33c0-1.85-.06-3.71,0-5.56,0-1-.3-1.33-1.3-1.31C100,65.84,97.2,65.8,94.39,65.8Zm9.7,15.38c0-.61,0-1.24,0-1.85.1-1-.38-1.2-1.27-1-1.06.26-2.12.5-3.2.66-2.33.36-4.59,1.3-7,.7-1.57-.38-3.16-.63-4.74-1-3.13-.65-3.13-.66-3.13,2.51,0,2.61,0,2.61,2.47,3.52s4.73,2.39,7.09,2.39,4.85-1.45,7.23-2.37C104.62,83.6,104,84.55,104.09,81.18Z"/><path class="cls-1" d="M101,37.88c1.57,0,3.14,0,4.71,0a4.38,4.38,0,0,1,4.55,4.61,34.54,34.54,0,0,1-.14,6.27c-.87,4.94-4.85,7.87-10.14,7.52a9,9,0,0,1-8.19-8.6c-.09-1.8-.08-3.62,0-5.42a4.37,4.37,0,0,1,4.37-4.37c1.61-.07,3.23,0,4.85,0Zm.14,4.28c-1.38,0-2.75,0-4.13,0-.62,0-1,.15-1,.87,0,1.57-.08,3.15.06,4.71.23,2.72,2.35,4.39,5.23,4.29a4.66,4.66,0,0,0,4.65-4.63c0-1.38,0-2.76,0-4.13,0-.91-.32-1.16-1.16-1.12C103.58,42.2,102.34,42.16,101.1,42.16Z"/><path class="cls-1" d="M3.76,195.85a6.34,6.34,0,0,1-1.62-4.67v-7.9h2.6v7.8q0,4.13,3.56,4.12t3.54-4.12v-7.8H14.4v7.9a6.38,6.38,0,0,1-1.61,4.67,6,6,0,0,1-4.51,1.63A6.08,6.08,0,0,1,3.76,195.85Z"/><path class="cls-1" d="M32.48,183.28v14H30.34l-7.72-9.48v9.48H20v-14h2.14l7.72,9.48v-9.48Z"/><path class="cls-1" d="M38.24,183.28h2.6v14h-2.6Z"/><path class="cls-1" d="M49.22,185.46v4.26H56v2.2H49.22v5.36h-2.6v-14H56.84v2.18Z"/><path class="cls-1" d="M63.88,196.55a6.84,6.84,0,0,1-2.7-2.58,7.44,7.44,0,0,1,0-7.38,6.84,6.84,0,0,1,2.7-2.58,8.48,8.48,0,0,1,7.72,0,6.89,6.89,0,0,1,2.7,2.57,7.47,7.47,0,0,1,0,7.4,6.89,6.89,0,0,1-2.7,2.57,8.48,8.48,0,0,1-7.72,0Zm6.38-2A4.58,4.58,0,0,0,72,192.81a5.32,5.32,0,0,0,0-5.06A4.58,4.58,0,0,0,70.26,186a5.35,5.35,0,0,0-5,0,4.58,4.58,0,0,0-1.76,1.76,5.32,5.32,0,0,0,0,5.06,4.58,4.58,0,0,0,1.76,1.76,5.35,5.35,0,0,0,5,0Z"/><path class="cls-1" d="M89.2,197.28l-2.86-4.1-.54,0H82.64v4.08H80v-14H85.8a7.76,7.76,0,0,1,3.17.6A4.59,4.59,0,0,1,91,185.6,5.23,5.23,0,0,1,91,191a4.55,4.55,0,0,1-2.21,1.7l3.22,4.6Zm-.94-11.08a4,4,0,0,0-2.58-.72h-3v5.58h3a4,4,0,0,0,2.58-.73,2.54,2.54,0,0,0,.88-2.07A2.5,2.5,0,0,0,88.26,186.2Z"/><path class="cls-1" d="M109.52,197.28l0-9.28-4.6,7.68h-1.16l-4.6-7.56v9.16H96.66v-14H98.8l5.56,9.28,5.46-9.28H112l0,14Z"/><path class="cls-1" d="M128.26,195.1v2.18h-10.5v-14H128v2.18h-7.62v3.64h6.76v2.14h-6.76v3.86Z"/><path class="cls-1" d="M134.37,197A6.53,6.53,0,0,1,132,195.8l.9-2a7.25,7.25,0,0,0,2.11,1.11,7.57,7.57,0,0,0,2.51.43,4.36,4.36,0,0,0,2.33-.5,1.51,1.51,0,0,0,.77-1.32,1.27,1.27,0,0,0-.43-1,3.1,3.1,0,0,0-1.09-.61c-.44-.15-1-.31-1.8-.5a20.81,20.81,0,0,1-2.59-.76,4.21,4.21,0,0,1-1.7-1.19,3.22,3.22,0,0,1-.71-2.19,3.74,3.74,0,0,1,.63-2.11,4.24,4.24,0,0,1,1.9-1.51,7.75,7.75,0,0,1,3.11-.56,10.24,10.24,0,0,1,2.52.32,6.85,6.85,0,0,1,2.14.92l-.82,2a8.11,8.11,0,0,0-1.92-.82,7.05,7.05,0,0,0-1.94-.28,4,4,0,0,0-2.29.52,1.61,1.61,0,0,0-.75,1.38,1.23,1.23,0,0,0,.43,1,3.25,3.25,0,0,0,1.09.6c.44.15,1,.31,1.8.5a19.09,19.09,0,0,1,2.56.75,4.37,4.37,0,0,1,1.71,1.19,3.14,3.14,0,0,1,.71,2.16,3.7,3.7,0,0,1-.63,2.1,4.26,4.26,0,0,1-1.91,1.5,7.81,7.81,0,0,1-3.12.56A10.59,10.59,0,0,1,134.37,197Z"/></g></g></svg>