<svg xmlns="http://www.w3.org/2000/svg" viewBox="0 0 215.56 280.08"><defs><style>.cls-1{fill:#004796;}</style></defs><g id="Capa_2" data-name="Capa 2"><g id="Capa_1-2" data-name="Capa 1"><path class="cls-1" d="M185,185.06c-1,1.46-2.35,1.8-4,1.8q-88.43,0-176.85,0c-.3,0-.6,0-.9,0-2-.09-3.19-1.13-3.18-2.74s1.23-2.67,3.2-2.67q13.55,0,27.1,0h9.81A21.53,21.53,0,0,1,37.42,175c-.6-3.32.23-6.46.84-9.64,2.26-11.93,4.51-23.87,6.84-35.79a13.9,13.9,0,0,1,9.75-11.08c6.42-2.19,12.88-4.3,19.32-6.44.38-.13,1,0,1-.59,0-2,.84-4.24-.5-6-4.2-5.39-5.48-11.54-5.19-18.16a3,3,0,0,0-1.7-3.27,7.52,7.52,0,0,1-4-6.84,143.4,143.4,0,0,1,.13-16.06c.45-4.7,3.16-7.82,7.54-9.45a3,3,0,0,0,1.9-1.68,7.72,7.72,0,0,1,7.14-4.73c8.73,0,17.46-.5,26.17.25,7.16.61,13.81,7.56,14.42,14.73.46,5.47.2,10.95.21,16.42a8.18,8.18,0,0,1-4.69,7.76,1.83,1.83,0,0,0-1.08,2A47.54,47.54,0,0,1,115,96a21.72,21.72,0,0,1-4.44,9.56c-1.5,1.85-.63,3.92-.76,5.89,0,.43.44.46.79.58,6.22,2,12.42,4.16,18.66,6.14s9.69,6.11,10.88,12.44q3.54,19,7.22,37.92c.87,4.51.36,8.73-2.47,12.59a3.17,3.17,0,0,0,2,.26c11.44,0,22.88,0,34.32,0a4,4,0,0,1,3.8,1.87ZM92.58,143.42c-11.07,0-22.15,0-33.22,0-1.32,0-1.9.21-1.89,1.75q.09,17.25,0,34.49c0,1.44.42,1.81,1.83,1.81q33.14-.06,66.27,0c1.55,0,1.89-.48,1.89-1.94q-.09-17.06,0-34.13c0-1.61-.45-2-2-2C114.49,143.45,103.54,143.42,92.58,143.42ZM92.37,138c11.31,0,22.63,0,33.94,0,2.1,0,3.93.43,5.3,2.15a7,7,0,0,1,1.25,4.6c0,11.68,0,23.35,0,35,0,1.32.22,1.8,1.7,1.56a8.87,8.87,0,0,0,7.59-10.74q-3.69-19.66-7.45-39.33a9.42,9.42,0,0,0-6.72-7.73c-4.74-1.55-9.48-3.1-14.18-4.76-1.27-.45-1.59,0-1.75,1.09a13.2,13.2,0,0,1-2,5.17c-5,7.6-12.19,10.7-20.94,9.3C80.75,133,75,128.19,72.89,119.67c-.27-1.08-.66-1.29-1.72-.92-4.71,1.63-9.45,3.2-14.19,4.75a9.31,9.31,0,0,0-6.68,7.55c-2.55,13.28-5.1,26.56-7.56,39.86A8.83,8.83,0,0,0,50,181.25c1.76.34,2.09-.18,2.08-1.85-.06-11.49,0-23,0-34.49,0-4.89,2-6.92,6.89-6.93Zm0-67c-4.51,0-9,0-13.54,0-2.79,0-4,1.15-4,3.94q-.06,7.59,0,15.16C75,102,84.51,109.83,94.25,108.89c7.62-.74,15-7.68,15.57-15.35.46-6.13.14-12.26.21-18.39,0-3.12-1.11-4.19-4.27-4.2C101.31,70.94,96.86,71,92.41,71Zm-23.3,5.74h.23c0-.59,0-1.18,0-1.77.18-5.55,3.44-9.27,8.68-9.35q14.43-.21,28.87,0c4.67.06,7.64,3,8.47,7.57.21,1.19.14,2.38.36,3.56.09-4.75.29-9.51,0-14.24-.37-7.08-5.13-11.65-12.06-11.75-7.4-.09-14.8,0-22.2,0-2.23,0-3.25.79-3.65,2.93a3.24,3.24,0,0,1-3.27,2.93,5.72,5.72,0,0,0-5.44,5.91C69,67.2,69.11,72,69.11,76.69Zm37.75,41.71c0-.52.2-1-.37-1.17-2.28-.55-2.25-2.33-2.25-4.12s0-1.86-1.81-1a22.07,22.07,0,0,1-20-.12c-1.79-.87-1.78-.91-1.78,1.08,0,1.78.09,3.59-2.2,4.16-.57.14-.52.6-.43,1a16.8,16.8,0,0,0,.59,2.07c2.89,7.28,11.74,10.92,19.43,7.92A13.4,13.4,0,0,0,106.86,118.4Z"/><path class="cls-1" d="M92.4,155.38a8.42,8.42,0,0,1,8.53,8.39A8.47,8.47,0,1,1,84,163.9,8.43,8.43,0,0,1,92.4,155.38Zm3.08,8.52a3,3,0,0,0-6-.13,3,3,0,1,0,6,.13Z"/><path class="cls-1" d="M46.5,231.88l0-9.28-4.6,7.68H40.72l-4.6-7.56v9.16H33.64v-14h2.14l5.56,9.28,5.46-9.28h2.14l0,14Z"/><path class="cls-1" d="M57.42,231.15a6.84,6.84,0,0,1-2.7-2.58,7.44,7.44,0,0,1,0-7.38,6.84,6.84,0,0,1,2.7-2.58,8.48,8.48,0,0,1,7.72,0,6.89,6.89,0,0,1,2.7,2.57,7.47,7.47,0,0,1,0,7.4,6.89,6.89,0,0,1-2.7,2.57,8.48,8.48,0,0,1-7.72,0Zm6.38-2a4.58,4.58,0,0,0,1.76-1.76,5.32,5.32,0,0,0,0-5.06,4.58,4.58,0,0,0-1.76-1.76,5.36,5.36,0,0,0-5,0A4.58,4.58,0,0,0,57,222.35a5.32,5.32,0,0,0,0,5.06,4.58,4.58,0,0,0,1.76,1.76,5.35,5.35,0,0,0,5,0Z"/><path class="cls-1" d="M85.94,217.88l-6.1,14H77.28l-6.12-14H74l4.66,10.8,4.7-10.8Z"/><path class="cls-1" d="M89.42,217.88H92v14h-2.6Z"/><path class="cls-1" d="M97.8,217.88h2.6v11.8h7.32v2.2H97.8Z"/><path class="cls-1" d="M111.78,217.88h2.6v14h-2.6Z"/><path class="cls-1" d="M120.16,217.88h6.12a8.79,8.79,0,0,1,4,.87,6.44,6.44,0,0,1,2.7,2.46,7.5,7.5,0,0,1,0,7.34,6.44,6.44,0,0,1-2.7,2.46,8.79,8.79,0,0,1-4,.87h-6.12Zm6,11.8a6,6,0,0,0,2.71-.59,4.18,4.18,0,0,0,1.8-1.68,5.4,5.4,0,0,0,0-5.06,4.18,4.18,0,0,0-1.8-1.68,6,6,0,0,0-2.71-.59h-3.4v9.6Z"/><path class="cls-1" d="M147.56,228.64h-7l-1.38,3.24H136.5l6.3-14h2.56l6.32,14H149Zm-.86-2-2.64-6.12-2.62,6.12Z"/><path class="cls-1" d="M155.46,217.88h6.12a8.79,8.79,0,0,1,4,.87,6.44,6.44,0,0,1,2.7,2.46,7.5,7.5,0,0,1,0,7.34,6.44,6.44,0,0,1-2.7,2.46,8.79,8.79,0,0,1-4,.87h-6.12Zm6,11.8a6,6,0,0,0,2.71-.59,4.18,4.18,0,0,0,1.8-1.68,5.4,5.4,0,0,0,0-5.06,4.18,4.18,0,0,0-1.8-1.68,6,6,0,0,0-2.71-.59h-3.4v9.6Z"/><path class="cls-1" d="M34.4,253.7v2.18H23.9v-14H34.12v2.18H26.5v3.64h6.76v2.14H26.5v3.86Z"/><path class="cls-1" d="M40.51,255.62a6.53,6.53,0,0,1-2.39-1.22l.9-2a7.25,7.25,0,0,0,2.11,1.11,7.57,7.57,0,0,0,2.51.43,4.36,4.36,0,0,0,2.33-.5,1.51,1.51,0,0,0,.77-1.32,1.27,1.27,0,0,0-.43-1,3.1,3.1,0,0,0-1.09-.61c-.44-.15-1-.31-1.8-.5a20.81,20.81,0,0,1-2.59-.76,4.21,4.21,0,0,1-1.7-1.19,3.22,3.22,0,0,1-.71-2.19,3.74,3.74,0,0,1,.63-2.11,4.24,4.24,0,0,1,1.9-1.51,7.75,7.75,0,0,1,3.11-.56,10.24,10.24,0,0,1,2.52.32,6.85,6.85,0,0,1,2.14.92l-.82,2a8.11,8.11,0,0,0-1.92-.82,7.05,7.05,0,0,0-1.94-.28,4,4,0,0,0-2.29.52,1.61,1.61,0,0,0-.75,1.38,1.23,1.23,0,0,0,.43,1,3.25,3.25,0,0,0,1.09.6c.44.15,1,.31,1.8.5a19.09,19.09,0,0,1,2.56.75,4.37,4.37,0,0,1,1.71,1.19,3.14,3.14,0,0,1,.71,2.16,3.7,3.7,0,0,1-.63,2.1,4.26,4.26,0,0,1-1.91,1.5,7.81,7.81,0,0,1-3.12.56A10.59,10.59,0,0,1,40.51,255.62Z"/><path class="cls-1" d="M56.52,244.08H51.88v-2.2H63.76v2.2H59.12v11.8h-2.6Z"/><path class="cls-1" d="M69,254.45a6.34,6.34,0,0,1-1.62-4.67v-7.9h2.6v7.8q0,4.13,3.56,4.12T77,249.68v-7.8H79.6v7.9A6.38,6.38,0,0,1,78,254.45a6,6,0,0,1-4.51,1.63A6.08,6.08,0,0,1,69,254.45Z"/><path class="cls-1" d="M85.24,241.88h6.12a8.79,8.79,0,0,1,4,.87,6.44,6.44,0,0,1,2.7,2.46,7.5,7.5,0,0,1,0,7.34,6.44,6.44,0,0,1-2.7,2.46,8.79,8.79,0,0,1-4,.87H85.24Zm6,11.8a6,6,0,0,0,2.71-.59,4.18,4.18,0,0,0,1.8-1.68,5.4,5.4,0,0,0,0-5.06,4.18,4.18,0,0,0-1.8-1.68,6,6,0,0,0-2.71-.59h-3.4v9.6Z"/><path class="cls-1" d="M103.76,241.88h2.6v14h-2.6Z"/><path class="cls-1" d="M121.22,252.64h-7l-1.38,3.24h-2.68l6.3-14H119l6.32,14h-2.72Zm-.86-2-2.64-6.12-2.62,6.12Z"/><path class="cls-1" d="M141.56,241.88v14h-2.14l-7.72-9.48v9.48h-2.58v-14h2.14l7.72,9.48v-9.48Z"/><path class="cls-1" d="M150.16,244.08h-4.64v-2.2H157.4v2.2h-4.64v11.8h-2.6Z"/><path class="cls-1" d="M161.36,241.88H164v14h-2.6Z"/><path class="cls-1" d="M169.74,241.88h2.6v11.8h7.32v2.2h-9.92Z"/><path class="cls-1" d="M52.3,265.88v14H50.16l-7.72-9.48v9.48H39.86v-14H42l7.72,9.48v-9.48Z"/><path class="cls-1" d="M67.14,276.64h-7l-1.38,3.24H56.08l6.3-14h2.56l6.32,14H68.54Zm-.86-2-2.64-6.12L61,274.6Z"/><path class="cls-1" d="M77.49,279.15a6.9,6.9,0,0,1-2.68-2.57,7.51,7.51,0,0,1,0-7.4,6.93,6.93,0,0,1,2.69-2.57,7.89,7.89,0,0,1,3.83-.93,8,8,0,0,1,3.14.6,6.35,6.35,0,0,1,2.4,1.74L85.2,269.6A4.91,4.91,0,0,0,81.46,268a5.24,5.24,0,0,0-2.58.63,4.54,4.54,0,0,0-1.78,1.75,5.36,5.36,0,0,0,0,5.08,4.54,4.54,0,0,0,1.78,1.75,5.24,5.24,0,0,0,2.58.63,4.86,4.86,0,0,0,3.74-1.66l1.68,1.6a6.39,6.39,0,0,1-2.41,1.74,8,8,0,0,1-3.15.6A7.89,7.89,0,0,1,77.49,279.15Z"/><path class="cls-1" d="M91.38,265.88H94v14h-2.6Z"/><path class="cls-1" d="M102.44,279.15a6.84,6.84,0,0,1-2.7-2.58,7.44,7.44,0,0,1,0-7.38,6.84,6.84,0,0,1,2.7-2.58,8.48,8.48,0,0,1,7.72,0,6.89,6.89,0,0,1,2.7,2.57,7.47,7.47,0,0,1,0,7.4,6.89,6.89,0,0,1-2.7,2.57,8.48,8.48,0,0,1-7.72,0Zm6.38-2a4.58,4.58,0,0,0,1.76-1.76,5.32,5.32,0,0,0,0-5.06,4.58,4.58,0,0,0-1.76-1.76,5.36,5.36,0,0,0-5,0,4.58,4.58,0,0,0-1.76,1.76,5.32,5.32,0,0,0,0,5.06,4.58,4.58,0,0,0,1.76,1.76,5.35,5.35,0,0,0,5,0Z"/><path class="cls-1" d="M131,265.88v14H128.9l-7.72-9.48v9.48H118.6v-14h2.14l7.72,9.48v-9.48Z"/><path class="cls-1" d="M145.88,276.64h-7l-1.38,3.24h-2.68l6.3-14h2.56l6.32,14h-2.72Zm-.86-2-2.64-6.12-2.62,6.12Z"/><path class="cls-1" d="M153.78,265.88h2.6v11.8h7.32v2.2h-9.92Z"/><path class="cls-1" d="M207.68,80.3l-.27-.2a4.85,4.85,0,0,0,.4-1.48l0-.19A6.59,6.59,0,0,0,206.78,73a6.49,6.49,0,0,0-5-2.28,46.18,46.18,0,0,0-5.64.12,16.64,16.64,0,0,1-3.78-.2c-2.46-.4-4.09-1.47-4.6-5.54a46.32,46.32,0,0,1-.19-6.81c0-.95,0-1.91,0-2.86a24.77,24.77,0,0,0-.7-6.19c-1.25-4.86-4.47-7.82-9.07-8.33a34.35,34.35,0,0,1-14.5-5.34c-4.88-3-10.27-4.54-15.48-6l-1.52-.43c-8-2.28-12.1-7.65-12.26-16a55.86,55.86,0,0,0-.44-6.75c-.43-3.11-2-5.2-4.51-6.21L128.7,0h-3.6l-.53.27a4.7,4.7,0,0,1-1.15.26c-.39.07-.79.13-1.18.23a31.07,31.07,0,0,0-8.68,3.61c-4.71,2.8-8.63,5.06-12.35,7.12-4.63,2.56-8.68,3.14-12.74,1.81l-3.33-1.1,0,3.5a13.48,13.48,0,0,0,2.16,6.6l.09.16A38.06,38.06,0,0,0,89.72,26a27,27,0,0,1,2.39,3.82,2.72,2.72,0,0,1,.32,2.34,44.23,44.23,0,0,0-2.36,8.07c1.69,0,3.38,0,5.07,0h0A38,38,0,0,1,97.07,34a7.59,7.59,0,0,0-.45-6.35,30.92,30.92,0,0,0-2.81-4.55,36,36,0,0,1-2-3.06l-.09-.17c-.18-.32-.36-.64-.52-.95a21.64,21.64,0,0,0,12.42-3.07c3.76-2.08,7.73-4.37,12.48-7.2a26.62,26.62,0,0,1,7.32-3c.26-.06.52-.1.78-.14a9.73,9.73,0,0,0,2-.47h1.47c.44.27.85.77,1,2.08a51.35,51.35,0,0,1,.39,6.15C129.29,23.7,134.93,31,145,33.91l1.53.43c5.1,1.44,9.93,2.8,14.21,5.45a39.5,39.5,0,0,0,16.57,6.05c2.49.28,4.06,1.79,4.79,4.62a19.2,19.2,0,0,1,.54,4.95c0,.92,0,1.83,0,2.75a50.35,50.35,0,0,0,.23,7.53c.71,5.7,3.66,9,8.75,9.86a22.46,22.46,0,0,0,5,.25,39.38,39.38,0,0,1,4.94-.12,2.15,2.15,0,0,1,1.35.38,2.21,2.21,0,0,1,.07,1.5l-.06.35s0,.11,0,.16c-.84,1.68-1.13,4.09,1.92,6.29,4.72,3.4,6.53,8,5.52,14.07a77.82,77.82,0,0,1-2.25,9l-.57,2-.1.32c-.07.26-.16.55-.23.86a34.09,34.09,0,0,0-26.2-6.13,23.83,23.83,0,0,0-13.26,6.26c-3.72,3.64-5.78,8.44-6.47,15.08-.07.66-.13,1.32-.18,2a26,26,0,0,1-.6,4.48c-.58,2.3-1.65,3-3.94,2.63a29.75,29.75,0,0,1-3.28-.8,8,8,0,0,0-7.17,1q.56,3,1.15,6.1a5.86,5.86,0,0,1,1.59-1.92c.58-.47,1.36-.84,3.07-.36a35.26,35.26,0,0,0,3.82.92c4.87.82,8.38-1.5,9.61-6.32a32,32,0,0,0,.74-5.33c.05-.62.09-1.24.16-1.86.58-5.49,2.12-9.21,5-12a18.71,18.71,0,0,1,10.55-4.89,29.51,29.51,0,0,1,24.47,6.8,3.21,3.21,0,0,0,2.24,1.26,3.05,3.05,0,0,0,2.31-.86c2-1.79,1.75-3.44,1.2-4.52a4.13,4.13,0,0,1,.21-.91l.12-.39c.18-.65.37-1.3.56-2a82.77,82.77,0,0,0,2.38-9.61C216.55,91.24,214,84.86,207.68,80.3Z"/></g></g></svg>